<svg xmlns="http://www.w3.org/2000/svg" width="750" height="500" style="box-sizing: inherit; font-family: Calibri;"><rect id="backgroundRect" width="100%" height="100%" x="0" y="0" fill="rgb(255,255,255)" fill-opacity="1" visibility="visible" style="box-sizing: inherit; fill: rgb(255, 255, 255); fill-opacity: 1; display: block;"/><defs style="box-sizing: inherit;"/><clipPath id="chartRect327225" style="box-sizing: inherit;"><rect x="-1.0" y="-1.0" width="747.0" height="494.0" style="box-sizing: inherit;"/></clipPath><g class="wj-header" style="box-sizing: inherit; background: rgb(238, 238, 238); color: rgb(68, 68, 68); font-weight: 700;" clip-path="url(#chartRect327225)"><text x="219.7" y="23.0" fill="rgb(68,68,68)" class="wj-title" fill-opacity="1" display="block" style="box-sizing: inherit; cursor: default; font-size: 16pt; font-family: &apos;Segoe UI&apos;; font-style: normal; font-weight: normal; display: block; fill: rgb(68, 68, 68); fill-opacity: 1;">Average Magnitude (2010-2016)</text></g><g class="wj-footer" style="box-sizing: inherit;" clip-path="url(#chartRect327225)"/><clipPath id="legRect980468" style="box-sizing: inherit;"><rect x="684.8" y="184.0" width="61.2" height="152.0" style="box-sizing: inherit;"/></clipPath><g class="wj-legend" style="box-sizing: inherit;" clip-path="url(#legRect980468)"><rect fill="rgb(247,251,255)" stroke="rgb(247,251,255)" stroke-width="1" x="689.8" y="192.5" width="10.0" height="10.0" fill-opacity="1" stroke-opacity="1" style="box-sizing: inherit;"/><text x="703.8" y="203.5" class="wj-label" fill="rgb(68,68,68)" fill-opacity="1" display="block" style="box-sizing: inherit; cursor: default; font-size: 10pt; font-family: &apos;Segoe UI&apos;; font-style: normal; font-weight: normal; display: block; fill: rgb(68, 68, 68); fill-opacity: 1;"> ≤ 2.62</text><rect fill="rgb(198,219,239)" stroke="rgb(198,219,239)" stroke-width="1" x="689.8" y="217.5" width="10.0" height="10.0" fill-opacity="1" stroke-opacity="1" style="box-sizing: inherit;"/><text x="703.8" y="228.5" class="wj-label" fill="rgb(68,68,68)" fill-opacity="1" display="block" style="box-sizing: inherit; cursor: default; font-size: 10pt; font-family: &apos;Segoe UI&apos;; font-style: normal; font-weight: normal; display: block; fill: rgb(68, 68, 68); fill-opacity: 1;"> ≤ 2.79</text><rect fill="rgb(107,174,214)" stroke="rgb(107,174,214)" stroke-width="1" x="689.8" y="242.5" width="10.0" height="10.0" fill-opacity="1" stroke-opacity="1" style="box-sizing: inherit;"/><text x="703.8" y="253.5" class="wj-label" fill="rgb(68,68,68)" fill-opacity="1" display="block" style="box-sizing: inherit; cursor: default; font-size: 10pt; font-family: &apos;Segoe UI&apos;; font-style: normal; font-weight: normal; display: block; fill: rgb(68, 68, 68); fill-opacity: 1;"> ≤ 2.87</text><rect fill="rgb(33,113,181)" stroke="rgb(33,113,181)" stroke-width="1" x="689.8" y="267.5" width="10.0" height="10.0" fill-opacity="1" stroke-opacity="1" style="box-sizing: inherit;"/><text x="703.8" y="278.5" class="wj-label" fill="rgb(68,68,68)" fill-opacity="1" display="block" style="box-sizing: inherit; cursor: default; font-size: 10pt; font-family: &apos;Segoe UI&apos;; font-style: normal; font-weight: normal; display: block; fill: rgb(68, 68, 68); fill-opacity: 1;"> ≤ 2.96</text><rect fill="rgb(8,48,107)" stroke="rgb(8,48,107)" stroke-width="1" x="689.8" y="292.5" width="10.0" height="10.0" fill-opacity="1" stroke-opacity="1" style="box-sizing: inherit;"/><text x="703.8" y="303.5" class="wj-label" fill="rgb(68,68,68)" fill-opacity="1" display="block" style="box-sizing: inherit; cursor: default; font-size: 10pt; font-family: &apos;Segoe UI&apos;; font-style: normal; font-weight: normal; display: block; fill: rgb(68, 68, 68); fill-opacity: 1;"> ≤ 3.19</text><rect fill="rgb(192,192,192)" stroke="rgb(192,192,192)" stroke-width="1" x="689.8" y="317.5" width="10.0" height="10.0" fill-opacity="1" stroke-opacity="1" style="box-sizing: inherit;"/><text x="703.8" y="328.5" class="wj-label" fill="rgb(68,68,68)" fill-opacity="1" display="block" style="box-sizing: inherit; cursor: default; font-size: 10pt; font-family: &apos;Segoe UI&apos;; font-style: normal; font-weight: normal; display: block; fill: rgb(68, 68, 68); fill-opacity: 1;">Null</text></g><g class="wj-slice-group" transform="matrix(1 0 0 1 0 0)" style="box-sizing: inherit;"><g class="wj-slice slice-level1" style="box-sizing: inherit;"><g class="wj-slice slice-level2" style="box-sizing: inherit;"><g class="wj-slice slice-level3" style="box-sizing: inherit;"><g class="wj-slice slice-level4" style="box-sizing: inherit;"><g class="wj-slice slice-level5" style="box-sizing: inherit;"><g class="wj-slice slice-level6" style="box-sizing: inherit;"><g class="wj-slice slice-level7" style="box-sizing: inherit;"><path fill="rgb(33,113,181)" stroke-width="1" d="M 342.883,70.000 A 190.000,190.000 0 0,1 437.883,95.455 L 427.026,114.260 A 168.286,168.286 0 0,0 342.883,91.714 z" fill-opacity="1" style="box-sizing: inherit; stroke: rgb(119, 119, 119); stroke-width: 1px; stroke-opacity: 0; stroke-dasharray: none;"/></g><path fill="rgb(107,174,214)" stroke-width="1" d="M 342.883,91.714 A 168.286,168.286 0 0,1 427.026,114.260 L 416.169,133.065 A 146.571,146.571 0 0,0 342.883,113.429 z" fill-opacity="1" style="box-sizing: inherit; stroke: rgb(119, 119, 119); stroke-width: 1px; stroke-opacity: 0; stroke-dasharray: none;"/></g><path fill="rgb(33,113,181)" stroke-width="1" d="M 342.883,113.429 A 146.571,146.571 0 0,1 416.169,133.065 L 405.311,151.871 A 124.857,124.857 0 0,0 342.883,135.143 z" fill-opacity="1" style="box-sizing: inherit; stroke: rgb(119, 119, 119); stroke-width: 1px; stroke-opacity: 0; stroke-dasharray: none;"/></g><path fill="rgb(8,48,107)" stroke-width="1" d="M 342.883,135.143 A 124.857,124.857 0 0,1 405.311,151.871 L 394.454,170.676 A 103.143,103.143 0 0,0 342.883,156.857 z" fill-opacity="1" style="box-sizing: inherit; stroke: rgb(119, 119, 119); stroke-width: 1px; stroke-opacity: 0; stroke-dasharray: none;"/></g><path fill="rgb(107,174,214)" stroke-width="1" d="M 342.883,156.857 A 103.143,103.143 0 0,1 394.454,170.676 L 383.597,189.481 A 81.429,81.429 0 0,0 342.883,178.571 z" fill-opacity="1" style="box-sizing: inherit; stroke: rgb(119, 119, 119); stroke-width: 1px; stroke-opacity: 0; stroke-dasharray: none;"/></g><path fill="rgb(198,219,239)" stroke-width="1" d="M 342.883,178.571 A 81.429,81.429 0 0,1 383.597,189.481 L 372.740,208.286 A 59.714,59.714 0 0,0 342.883,200.286 z" fill-opacity="1" style="box-sizing: inherit; stroke: rgb(119, 119, 119); stroke-width: 1px; stroke-opacity: 0; stroke-dasharray: none;"/></g><path fill="rgb(192,192,192)" stroke-width="1" d="M 342.883,200.286 A 59.714,59.714 0 0,1 372.740,208.286 L 361.883,227.091 A 38.000,38.000 0 0,0 342.883,222.000 z" fill-opacity="1" style="box-sizing: inherit; stroke: rgb(119, 119, 119); stroke-width: 1px; stroke-opacity: 0; stroke-dasharray: none;"/></g><g class="wj-slice slice-level1" style="box-sizing: inherit;"><g class="wj-slice slice-level2" style="box-sizing: inherit;"><g class="wj-slice slice-level3" style="box-sizing: inherit;"><g class="wj-slice slice-level4" style="box-sizing: inherit;"><g class="wj-slice slice-level5" style="box-sizing: inherit;"><g class="wj-slice slice-level6" style="box-sizing: inherit;"><g class="wj-slice slice-level7" style="box-sizing: inherit;"><path fill="rgb(107,174,214)" stroke-width="1" d="M 437.883,95.455 A 190.000,190.000 0 0,1 507.428,165.000 L 488.623,175.857 A 168.286,168.286 0 0,0 427.026,114.260 z" fill-opacity="1" style="box-sizing: inherit; stroke: rgb(119, 119, 119); stroke-width: 1px; stroke-opacity: 0; stroke-dasharray: none;"/></g><path fill="rgb(33,113,181)" stroke-width="1" d="M 427.026,114.260 A 168.286,168.286 0 0,1 488.623,175.857 L 469.817,186.714 A 146.571,146.571 0 0,0 416.169,133.065 z" fill-opacity="1" style="box-sizing: inherit; stroke: rgb(119, 119, 119); stroke-width: 1px; stroke-opacity: 0; stroke-dasharray: none;"/></g><path fill="rgb(33,113,181)" stroke-width="1" d="M 416.169,133.065 A 146.571,146.571 0 0,1 469.817,186.714 L 451.012,197.571 A 124.857,124.857 0 0,0 405.311,151.871 z" fill-opacity="1" style="box-sizing: inherit; stroke: rgb(119, 119, 119); stroke-width: 1px; stroke-opacity: 0; stroke-dasharray: none;"/></g><path fill="rgb(198,219,239)" stroke-width="1" d="M 405.311,151.871 A 124.857,124.857 0 0,1 451.012,197.571 L 432.207,208.429 A 103.143,103.143 0 0,0 394.454,170.676 z" fill-opacity="1" style="box-sizing: inherit; stroke: rgb(119, 119, 119); stroke-width: 1px; stroke-opacity: 0; stroke-dasharray: none;"/></g><path fill="rgb(107,174,214)" stroke-width="1" d="M 394.454,170.676 A 103.143,103.143 0 0,1 432.207,208.429 L 413.402,219.286 A 81.429,81.429 0 0,0 383.597,189.481 z" fill-opacity="1" style="box-sizing: inherit; stroke: rgb(119, 119, 119); stroke-width: 1px; stroke-opacity: 0; stroke-dasharray: none;"/></g><path fill="rgb(247,251,255)" stroke-width="1" d="M 383.597,189.481 A 81.429,81.429 0 0,1 413.402,219.286 L 394.597,230.143 A 59.714,59.714 0 0,0 372.740,208.286 z" fill-opacity="1" style="box-sizing: inherit; stroke: rgb(119, 119, 119); stroke-width: 1px; stroke-opacity: 0; stroke-dasharray: none;"/></g><path fill="rgb(192,192,192)" stroke-width="1" d="M 372.740,208.286 A 59.714,59.714 0 0,1 394.597,230.143 L 375.792,241.000 A 38.000,38.000 0 0,0 361.883,227.091 z" fill-opacity="1" style="box-sizing: inherit; stroke: rgb(119, 119, 119); stroke-width: 1px; stroke-opacity: 0; stroke-dasharray: none;"/></g><g class="wj-slice slice-level1" style="box-sizing: inherit;"><g class="wj-slice slice-level2" style="box-sizing: inherit;"><g class="wj-slice slice-level3" style="box-sizing: inherit;"><g class="wj-slice slice-level4" style="box-sizing: inherit;"><g class="wj-slice slice-level5" style="box-sizing: inherit;"><g class="wj-slice slice-level6" style="box-sizing: inherit;"><g class="wj-slice slice-level7" style="box-sizing: inherit;"><path fill="rgb(33,113,181)" stroke-width="1" d="M 507.428,165.000 A 190.000,190.000 0 0,1 532.883,260.000 L 511.169,260.000 A 168.286,168.286 0 0,0 488.623,175.857 z" fill-opacity="1" style="box-sizing: inherit; stroke: rgb(119, 119, 119); stroke-width: 1px; stroke-opacity: 0; stroke-dasharray: none;"/></g><path fill="rgb(107,174,214)" stroke-width="1" d="M 488.623,175.857 A 168.286,168.286 0 0,1 511.169,260.000 L 489.454,260.000 A 146.571,146.571 0 0,0 469.817,186.714 z" fill-opacity="1" style="box-sizing: inherit; stroke: rgb(119, 119, 119); stroke-width: 1px; stroke-opacity: 0; stroke-dasharray: none;"/></g><path fill="rgb(107,174,214)" stroke-width="1" d="M 469.817,186.714 A 146.571,146.571 0 0,1 489.454,260.000 L 467.740,260.000 A 124.857,124.857 0 0,0 451.012,197.571 z" fill-opacity="1" style="box-sizing: inherit; stroke: rgb(119, 119, 119); stroke-width: 1px; stroke-opacity: 0; stroke-dasharray: none;"/></g><path fill="rgb(8,48,107)" stroke-width="1" d="M 451.012,197.571 A 124.857,124.857 0 0,1 467.740,260.000 L 446.026,260.000 A 103.143,103.143 0 0,0 432.207,208.429 z" fill-opacity="1" style="box-sizing: inherit; stroke: rgb(119, 119, 119); stroke-width: 1px; stroke-opacity: 0; stroke-dasharray: none;"/></g><path fill="rgb(33,113,181)" stroke-width="1" d="M 432.207,208.429 A 103.143,103.143 0 0,1 446.026,260.000 L 424.311,260.000 A 81.429,81.429 0 0,0 413.402,219.286 z" fill-opacity="1" style="box-sizing: inherit; stroke: rgb(119, 119, 119); stroke-width: 1px; stroke-opacity: 0; stroke-dasharray: none;"/></g><path fill="rgb(107,174,214)" stroke-width="1" d="M 413.402,219.286 A 81.429,81.429 0 0,1 424.311,260.000 L 402.597,260.000 A 59.714,59.714 0 0,0 394.597,230.143 z" fill-opacity="1" style="box-sizing: inherit; stroke: rgb(119, 119, 119); stroke-width: 1px; stroke-opacity: 0; stroke-dasharray: none;"/></g><path fill="rgb(192,192,192)" stroke-width="1" d="M 394.597,230.143 A 59.714,59.714 0 0,1 402.597,260.000 L 380.883,260.000 A 38.000,38.000 0 0,0 375.792,241.000 z" fill-opacity="1" style="box-sizing: inherit; stroke: rgb(119, 119, 119); stroke-width: 1px; stroke-opacity: 0; stroke-dasharray: none;"/></g><g class="wj-slice slice-level1" style="box-sizing: inherit;"><g class="wj-slice slice-level2" style="box-sizing: inherit;"><g class="wj-slice slice-level3" style="box-sizing: inherit;"><g class="wj-slice slice-level4" style="box-sizing: inherit;"><g class="wj-slice slice-level5" style="box-sizing: inherit;"><g class="wj-slice slice-level6" style="box-sizing: inherit;"><g class="wj-slice slice-level7" style="box-sizing: inherit;"><path fill="rgb(33,113,181)" stroke-width="1" d="M 532.883,260.000 A 190.000,190.000 0 0,1 507.428,355.000 L 488.623,344.143 A 168.286,168.286 0 0,0 511.169,260.000 z" fill-opacity="1" style="box-sizing: inherit; stroke: rgb(119, 119, 119); stroke-width: 1px; stroke-opacity: 0; stroke-dasharray: none;"/></g><path fill="rgb(107,174,214)" stroke-width="1" d="M 511.169,260.000 A 168.286,168.286 0 0,1 488.623,344.143 L 469.817,333.286 A 146.571,146.571 0 0,0 489.454,260.000 z" fill-opacity="1" style="box-sizing: inherit; stroke: rgb(119, 119, 119); stroke-width: 1px; stroke-opacity: 0; stroke-dasharray: none;"/></g><path fill="rgb(107,174,214)" stroke-width="1" d="M 489.454,260.000 A 146.571,146.571 0 0,1 469.817,333.286 L 451.012,322.429 A 124.857,124.857 0 0,0 467.740,260.000 z" fill-opacity="1" style="box-sizing: inherit; stroke: rgb(119, 119, 119); stroke-width: 1px; stroke-opacity: 0; stroke-dasharray: none;"/></g><path fill="rgb(8,48,107)" stroke-width="1" d="M 467.740,260.000 A 124.857,124.857 0 0,1 451.012,322.429 L 432.207,311.571 A 103.143,103.143 0 0,0 446.026,260.000 z" fill-opacity="1" style="box-sizing: inherit; stroke: rgb(119, 119, 119); stroke-width: 1px; stroke-opacity: 0; stroke-dasharray: none;"/></g><path fill="rgb(8,48,107)" stroke-width="1" d="M 446.026,260.000 A 103.143,103.143 0 0,1 432.207,311.571 L 413.402,300.714 A 81.429,81.429 0 0,0 424.311,260.000 z" fill-opacity="1" style="box-sizing: inherit; stroke: rgb(119, 119, 119); stroke-width: 1px; stroke-opacity: 0; stroke-dasharray: none;"/></g><path fill="rgb(247,251,255)" stroke-width="1" d="M 424.311,260.000 A 81.429,81.429 0 0,1 413.402,300.714 L 394.597,289.857 A 59.714,59.714 0 0,0 402.597,260.000 z" fill-opacity="1" style="box-sizing: inherit; stroke: rgb(119, 119, 119); stroke-width: 1px; stroke-opacity: 0; stroke-dasharray: none;"/></g><path fill="rgb(192,192,192)" stroke-width="1" d="M 402.597,260.000 A 59.714,59.714 0 0,1 394.597,289.857 L 375.792,279.000 A 38.000,38.000 0 0,0 380.883,260.000 z" fill-opacity="1" style="box-sizing: inherit; stroke: rgb(119, 119, 119); stroke-width: 1px; stroke-opacity: 0; stroke-dasharray: none;"/></g><g class="wj-slice slice-level1" style="box-sizing: inherit;"><g class="wj-slice slice-level2" style="box-sizing: inherit;"><g class="wj-slice slice-level3" style="box-sizing: inherit;"><g class="wj-slice slice-level4" style="box-sizing: inherit;"><g class="wj-slice slice-level5" style="box-sizing: inherit;"><g class="wj-slice slice-level6" style="box-sizing: inherit;"><g class="wj-slice slice-level7" style="box-sizing: inherit;"><path fill="rgb(107,174,214)" stroke-width="1" d="M 507.428,355.000 A 190.000,190.000 0 0,1 437.883,424.545 L 427.026,405.740 A 168.286,168.286 0 0,0 488.623,344.143 z" fill-opacity="1" style="box-sizing: inherit; stroke: rgb(119, 119, 119); stroke-width: 1px; stroke-opacity: 0; stroke-dasharray: none;"/></g><path fill="rgb(107,174,214)" stroke-width="1" d="M 488.623,344.143 A 168.286,168.286 0 0,1 427.026,405.740 L 416.169,386.935 A 146.571,146.571 0 0,0 469.817,333.286 z" fill-opacity="1" style="box-sizing: inherit; stroke: rgb(119, 119, 119); stroke-width: 1px; stroke-opacity: 0; stroke-dasharray: none;"/></g><path fill="rgb(107,174,214)" stroke-width="1" d="M 469.817,333.286 A 146.571,146.571 0 0,1 416.169,386.935 L 405.311,368.129 A 124.857,124.857 0 0,0 451.012,322.429 z" fill-opacity="1" style="box-sizing: inherit; stroke: rgb(119, 119, 119); stroke-width: 1px; stroke-opacity: 0; stroke-dasharray: none;"/></g><path fill="rgb(107,174,214)" stroke-width="1" d="M 451.012,322.429 A 124.857,124.857 0 0,1 405.311,368.129 L 394.454,349.324 A 103.143,103.143 0 0,0 432.207,311.571 z" fill-opacity="1" style="box-sizing: inherit; stroke: rgb(119, 119, 119); stroke-width: 1px; stroke-opacity: 0; stroke-dasharray: none;"/></g><path fill="rgb(33,113,181)" stroke-width="1" d="M 432.207,311.571 A 103.143,103.143 0 0,1 394.454,349.324 L 383.597,330.519 A 81.429,81.429 0 0,0 413.402,300.714 z" fill-opacity="1" style="box-sizing: inherit; stroke: rgb(119, 119, 119); stroke-width: 1px; stroke-opacity: 0; stroke-dasharray: none;"/></g><path fill="rgb(198,219,239)" stroke-width="1" d="M 413.402,300.714 A 81.429,81.429 0 0,1 383.597,330.519 L 372.740,311.714 A 59.714,59.714 0 0,0 394.597,289.857 z" fill-opacity="1" style="box-sizing: inherit; stroke: rgb(119, 119, 119); stroke-width: 1px; stroke-opacity: 0; stroke-dasharray: none;"/></g><path fill="rgb(192,192,192)" stroke-width="1" d="M 394.597,289.857 A 59.714,59.714 0 0,1 372.740,311.714 L 361.883,292.909 A 38.000,38.000 0 0,0 375.792,279.000 z" fill-opacity="1" style="box-sizing: inherit; stroke: rgb(119, 119, 119); stroke-width: 1px; stroke-opacity: 0; stroke-dasharray: none;"/></g><g class="wj-slice slice-level1" style="box-sizing: inherit;"><g class="wj-slice slice-level2" style="box-sizing: inherit;"><g class="wj-slice slice-level3" style="box-sizing: inherit;"><g class="wj-slice slice-level4" style="box-sizing: inherit;"><g class="wj-slice slice-level5" style="box-sizing: inherit;"><g class="wj-slice slice-level6" style="box-sizing: inherit;"><g class="wj-slice slice-level7" style="box-sizing: inherit;"><path fill="rgb(107,174,214)" stroke-width="1" d="M 437.883,424.545 A 190.000,190.000 0 0,1 342.883,450.000 L 342.883,428.286 A 168.286,168.286 0 0,0 427.026,405.740 z" fill-opacity="1" style="box-sizing: inherit; stroke: rgb(119, 119, 119); stroke-width: 1px; stroke-opacity: 0; stroke-dasharray: none;"/></g><path fill="rgb(33,113,181)" stroke-width="1" d="M 427.026,405.740 A 168.286,168.286 0 0,1 342.883,428.286 L 342.883,406.571 A 146.571,146.571 0 0,0 416.169,386.935 z" fill-opacity="1" style="box-sizing: inherit; stroke: rgb(119, 119, 119); stroke-width: 1px; stroke-opacity: 0; stroke-dasharray: none;"/></g><path fill="rgb(33,113,181)" stroke-width="1" d="M 416.169,386.935 A 146.571,146.571 0 0,1 342.883,406.571 L 342.883,384.857 A 124.857,124.857 0 0,0 405.311,368.129 z" fill-opacity="1" style="box-sizing: inherit; stroke: rgb(119, 119, 119); stroke-width: 1px; stroke-opacity: 0; stroke-dasharray: none;"/></g><path fill="rgb(33,113,181)" stroke-width="1" d="M 405.311,368.129 A 124.857,124.857 0 0,1 342.883,384.857 L 342.883,363.143 A 103.143,103.143 0 0,0 394.454,349.324 z" fill-opacity="1" style="box-sizing: inherit; stroke: rgb(119, 119, 119); stroke-width: 1px; stroke-opacity: 0; stroke-dasharray: none;"/></g><path fill="rgb(33,113,181)" stroke-width="1" d="M 394.454,349.324 A 103.143,103.143 0 0,1 342.883,363.143 L 342.883,341.429 A 81.429,81.429 0 0,0 383.597,330.519 z" fill-opacity="1" style="box-sizing: inherit; stroke: rgb(119, 119, 119); stroke-width: 1px; stroke-opacity: 0; stroke-dasharray: none;"/></g><path fill="rgb(247,251,255)" stroke-width="1" d="M 383.597,330.519 A 81.429,81.429 0 0,1 342.883,341.429 L 342.883,319.714 A 59.714,59.714 0 0,0 372.740,311.714 z" fill-opacity="1" style="box-sizing: inherit; stroke: rgb(119, 119, 119); stroke-width: 1px; stroke-opacity: 0; stroke-dasharray: none;"/></g><path fill="rgb(192,192,192)" stroke-width="1" d="M 372.740,311.714 A 59.714,59.714 0 0,1 342.883,319.714 L 342.883,298.000 A 38.000,38.000 0 0,0 361.883,292.909 z" fill-opacity="1" style="box-sizing: inherit; stroke: rgb(119, 119, 119); stroke-width: 1px; stroke-opacity: 0; stroke-dasharray: none;"/></g><g class="wj-slice slice-level1" style="box-sizing: inherit;"><g class="wj-slice slice-level2" style="box-sizing: inherit;"><g class="wj-slice slice-level3" style="box-sizing: inherit;"><g class="wj-slice slice-level4" style="box-sizing: inherit;"><g class="wj-slice slice-level5" style="box-sizing: inherit;"><g class="wj-slice slice-level6" style="box-sizing: inherit;"><g class="wj-slice slice-level7" style="box-sizing: inherit;"><path fill="rgb(107,174,214)" stroke-width="1" d="M 342.883,450.000 A 190.000,190.000 0 0,1 247.883,424.545 L 258.740,405.740 A 168.286,168.286 0 0,0 342.883,428.286 z" fill-opacity="1" style="box-sizing: inherit; stroke: rgb(119, 119, 119); stroke-width: 1px; stroke-opacity: 0; stroke-dasharray: none;"/></g><path fill="rgb(33,113,181)" stroke-width="1" d="M 342.883,428.286 A 168.286,168.286 0 0,1 258.740,405.740 L 269.597,386.935 A 146.571,146.571 0 0,0 342.883,406.571 z" fill-opacity="1" style="box-sizing: inherit; stroke: rgb(119, 119, 119); stroke-width: 1px; stroke-opacity: 0; stroke-dasharray: none;"/></g><path fill="rgb(107,174,214)" stroke-width="1" d="M 342.883,406.571 A 146.571,146.571 0 0,1 269.597,386.935 L 280.454,368.129 A 124.857,124.857 0 0,0 342.883,384.857 z" fill-opacity="1" style="box-sizing: inherit; stroke: rgb(119, 119, 119); stroke-width: 1px; stroke-opacity: 0; stroke-dasharray: none;"/></g><path fill="rgb(107,174,214)" stroke-width="1" d="M 342.883,384.857 A 124.857,124.857 0 0,1 280.454,368.129 L 291.311,349.324 A 103.143,103.143 0 0,0 342.883,363.143 z" fill-opacity="1" style="box-sizing: inherit; stroke: rgb(119, 119, 119); stroke-width: 1px; stroke-opacity: 0; stroke-dasharray: none;"/></g><path fill="rgb(33,113,181)" stroke-width="1" d="M 342.883,363.143 A 103.143,103.143 0 0,1 291.311,349.324 L 302.169,330.519 A 81.429,81.429 0 0,0 342.883,341.429 z" fill-opacity="1" style="box-sizing: inherit; stroke: rgb(119, 119, 119); stroke-width: 1px; stroke-opacity: 0; stroke-dasharray: none;"/></g><path fill="rgb(247,251,255)" stroke-width="1" d="M 342.883,341.429 A 81.429,81.429 0 0,1 302.169,330.519 L 313.026,311.714 A 59.714,59.714 0 0,0 342.883,319.714 z" fill-opacity="1" style="box-sizing: inherit; stroke: rgb(119, 119, 119); stroke-width: 1px; stroke-opacity: 0; stroke-dasharray: none;"/></g><path fill="rgb(33,113,181)" stroke-width="1" d="M 342.883,319.714 A 59.714,59.714 0 0,1 313.026,311.714 L 323.883,292.909 A 38.000,38.000 0 0,0 342.883,298.000 z" fill-opacity="1" style="box-sizing: inherit; stroke: rgb(119, 119, 119); stroke-width: 1px; stroke-opacity: 0; stroke-dasharray: none;"/></g><g class="wj-slice slice-level1" style="box-sizing: inherit;"><g class="wj-slice slice-level2" style="box-sizing: inherit;"><g class="wj-slice slice-level3" style="box-sizing: inherit;"><g class="wj-slice slice-level4" style="box-sizing: inherit;"><g class="wj-slice slice-level5" style="box-sizing: inherit;"><g class="wj-slice slice-level6" style="box-sizing: inherit;"><g class="wj-slice slice-level7" style="box-sizing: inherit;"><path fill="rgb(192,192,192)" stroke-width="1" d="M 247.883,424.545 A 190.000,190.000 0 0,1 178.338,355.000 L 197.143,344.143 A 168.286,168.286 0 0,0 258.740,405.740 z" fill-opacity="1" style="box-sizing: inherit; stroke: rgb(119, 119, 119); stroke-width: 1px; stroke-opacity: 0; stroke-dasharray: none;"/></g><path fill="rgb(107,174,214)" stroke-width="1" d="M 258.740,405.740 A 168.286,168.286 0 0,1 197.143,344.143 L 215.948,333.286 A 146.571,146.571 0 0,0 269.597,386.935 z" fill-opacity="1" style="box-sizing: inherit; stroke: rgb(119, 119, 119); stroke-width: 1px; stroke-opacity: 0; stroke-dasharray: none;"/></g><path fill="rgb(107,174,214)" stroke-width="1" d="M 269.597,386.935 A 146.571,146.571 0 0,1 215.948,333.286 L 234.753,322.429 A 124.857,124.857 0 0,0 280.454,368.129 z" fill-opacity="1" style="box-sizing: inherit; stroke: rgb(119, 119, 119); stroke-width: 1px; stroke-opacity: 0; stroke-dasharray: none;"/></g><path fill="rgb(33,113,181)" stroke-width="1" d="M 280.454,368.129 A 124.857,124.857 0 0,1 234.753,322.429 L 253.558,311.571 A 103.143,103.143 0 0,0 291.311,349.324 z" fill-opacity="1" style="box-sizing: inherit; stroke: rgb(119, 119, 119); stroke-width: 1px; stroke-opacity: 0; stroke-dasharray: none;"/></g><path fill="rgb(107,174,214)" stroke-width="1" d="M 291.311,349.324 A 103.143,103.143 0 0,1 253.558,311.571 L 272.364,300.714 A 81.429,81.429 0 0,0 302.169,330.519 z" fill-opacity="1" style="box-sizing: inherit; stroke: rgb(119, 119, 119); stroke-width: 1px; stroke-opacity: 0; stroke-dasharray: none;"/></g><path fill="rgb(198,219,239)" stroke-width="1" d="M 302.169,330.519 A 81.429,81.429 0 0,1 272.364,300.714 L 291.169,289.857 A 59.714,59.714 0 0,0 313.026,311.714 z" fill-opacity="1" style="box-sizing: inherit; stroke: rgb(119, 119, 119); stroke-width: 1px; stroke-opacity: 0; stroke-dasharray: none;"/></g><path fill="rgb(198,219,239)" stroke-width="1" d="M 313.026,311.714 A 59.714,59.714 0 0,1 291.169,289.857 L 309.974,279.000 A 38.000,38.000 0 0,0 323.883,292.909 z" fill-opacity="1" style="box-sizing: inherit; stroke: rgb(119, 119, 119); stroke-width: 1px; stroke-opacity: 0; stroke-dasharray: none;"/></g><g class="wj-slice slice-level1" style="box-sizing: inherit;"><g class="wj-slice slice-level2" style="box-sizing: inherit;"><g class="wj-slice slice-level3" style="box-sizing: inherit;"><g class="wj-slice slice-level4" style="box-sizing: inherit;"><g class="wj-slice slice-level5" style="box-sizing: inherit;"><g class="wj-slice slice-level6" style="box-sizing: inherit;"><g class="wj-slice slice-level7" style="box-sizing: inherit;"><path fill="rgb(192,192,192)" stroke-width="1" d="M 178.338,355.000 A 190.000,190.000 0 0,1 152.883,260.000 L 174.597,260.000 A 168.286,168.286 0 0,0 197.143,344.143 z" fill-opacity="1" style="box-sizing: inherit; stroke: rgb(119, 119, 119); stroke-width: 1px; stroke-opacity: 0; stroke-dasharray: none;"/></g><path fill="rgb(107,174,214)" stroke-width="1" d="M 197.143,344.143 A 168.286,168.286 0 0,1 174.597,260.000 L 196.311,260.000 A 146.571,146.571 0 0,0 215.948,333.286 z" fill-opacity="1" style="box-sizing: inherit; stroke: rgb(119, 119, 119); stroke-width: 1px; stroke-opacity: 0; stroke-dasharray: none;"/></g><path fill="rgb(33,113,181)" stroke-width="1" d="M 215.948,333.286 A 146.571,146.571 0 0,1 196.311,260.000 L 218.026,260.000 A 124.857,124.857 0 0,0 234.753,322.429 z" fill-opacity="1" style="box-sizing: inherit; stroke: rgb(119, 119, 119); stroke-width: 1px; stroke-opacity: 0; stroke-dasharray: none;"/></g><path fill="rgb(107,174,214)" stroke-width="1" d="M 234.753,322.429 A 124.857,124.857 0 0,1 218.026,260.000 L 239.740,260.000 A 103.143,103.143 0 0,0 253.558,311.571 z" fill-opacity="1" style="box-sizing: inherit; stroke: rgb(119, 119, 119); stroke-width: 1px; stroke-opacity: 0; stroke-dasharray: none;"/></g><path fill="rgb(33,113,181)" stroke-width="1" d="M 253.558,311.571 A 103.143,103.143 0 0,1 239.740,260.000 L 261.454,260.000 A 81.429,81.429 0 0,0 272.364,300.714 z" fill-opacity="1" style="box-sizing: inherit; stroke: rgb(119, 119, 119); stroke-width: 1px; stroke-opacity: 0; stroke-dasharray: none;"/></g><path fill="rgb(198,219,239)" stroke-width="1" d="M 272.364,300.714 A 81.429,81.429 0 0,1 261.454,260.000 L 283.169,260.000 A 59.714,59.714 0 0,0 291.169,289.857 z" fill-opacity="1" style="box-sizing: inherit; stroke: rgb(119, 119, 119); stroke-width: 1px; stroke-opacity: 0; stroke-dasharray: none;"/></g><path fill="rgb(107,174,214)" stroke-width="1" d="M 291.169,289.857 A 59.714,59.714 0 0,1 283.169,260.000 L 304.883,260.000 A 38.000,38.000 0 0,0 309.974,279.000 z" fill-opacity="1" style="box-sizing: inherit; stroke: rgb(119, 119, 119); stroke-width: 1px; stroke-opacity: 0; stroke-dasharray: none;"/></g><g class="wj-slice slice-level1" style="box-sizing: inherit;"><g class="wj-slice slice-level2" style="box-sizing: inherit;"><g class="wj-slice slice-level3" style="box-sizing: inherit;"><g class="wj-slice slice-level4" style="box-sizing: inherit;"><g class="wj-slice slice-level5" style="box-sizing: inherit;"><g class="wj-slice slice-level6" style="box-sizing: inherit;"><g class="wj-slice slice-level7" style="box-sizing: inherit;"><path fill="rgb(192,192,192)" stroke-width="1" d="M 152.883,260.000 A 190.000,190.000 0 0,1 178.338,165.000 L 197.143,175.857 A 168.286,168.286 0 0,0 174.597,260.000 z" fill-opacity="1" style="box-sizing: inherit; stroke: rgb(119, 119, 119); stroke-width: 1px; stroke-opacity: 0; stroke-dasharray: none;"/></g><path fill="rgb(107,174,214)" stroke-width="1" d="M 174.597,260.000 A 168.286,168.286 0 0,1 197.143,175.857 L 215.948,186.714 A 146.571,146.571 0 0,0 196.311,260.000 z" fill-opacity="1" style="box-sizing: inherit; stroke: rgb(119, 119, 119); stroke-width: 1px; stroke-opacity: 0; stroke-dasharray: none;"/></g><path fill="rgb(198,219,239)" stroke-width="1" d="M 196.311,260.000 A 146.571,146.571 0 0,1 215.948,186.714 L 234.753,197.571 A 124.857,124.857 0 0,0 218.026,260.000 z" fill-opacity="1" style="box-sizing: inherit; stroke: rgb(119, 119, 119); stroke-width: 1px; stroke-opacity: 0; stroke-dasharray: none;"/></g><path fill="rgb(107,174,214)" stroke-width="1" d="M 218.026,260.000 A 124.857,124.857 0 0,1 234.753,197.571 L 253.558,208.429 A 103.143,103.143 0 0,0 239.740,260.000 z" fill-opacity="1" style="box-sizing: inherit; stroke: rgb(119, 119, 119); stroke-width: 1px; stroke-opacity: 0; stroke-dasharray: none;"/></g><path fill="rgb(8,48,107)" stroke-width="1" d="M 239.740,260.000 A 103.143,103.143 0 0,1 253.558,208.429 L 272.364,219.286 A 81.429,81.429 0 0,0 261.454,260.000 z" fill-opacity="1" style="box-sizing: inherit; stroke: rgb(119, 119, 119); stroke-width: 1px; stroke-opacity: 0; stroke-dasharray: none;"/></g><path fill="rgb(107,174,214)" stroke-width="1" d="M 261.454,260.000 A 81.429,81.429 0 0,1 272.364,219.286 L 291.169,230.143 A 59.714,59.714 0 0,0 283.169,260.000 z" fill-opacity="1" style="box-sizing: inherit; stroke: rgb(119, 119, 119); stroke-width: 1px; stroke-opacity: 0; stroke-dasharray: none;"/></g><path fill="rgb(33,113,181)" stroke-width="1" d="M 283.169,260.000 A 59.714,59.714 0 0,1 291.169,230.143 L 309.974,241.000 A 38.000,38.000 0 0,0 304.883,260.000 z" fill-opacity="1" style="box-sizing: inherit; stroke: rgb(119, 119, 119); stroke-width: 1px; stroke-opacity: 0; stroke-dasharray: none;"/></g><g class="wj-slice slice-level1" style="box-sizing: inherit;"><g class="wj-slice slice-level2" style="box-sizing: inherit;"><g class="wj-slice slice-level3" style="box-sizing: inherit;"><g class="wj-slice slice-level4" style="box-sizing: inherit;"><g class="wj-slice slice-level5" style="box-sizing: inherit;"><g class="wj-slice slice-level6" style="box-sizing: inherit;"><g class="wj-slice slice-level7" style="box-sizing: inherit;"><path fill="rgb(192,192,192)" stroke-width="1" d="M 178.338,165.000 A 190.000,190.000 0 0,1 247.883,95.455 L 258.740,114.260 A 168.286,168.286 0 0,0 197.143,175.857 z" fill-opacity="1" style="box-sizing: inherit; stroke: rgb(119, 119, 119); stroke-width: 1px; stroke-opacity: 0; stroke-dasharray: none;"/></g><path fill="rgb(107,174,214)" stroke-width="1" d="M 197.143,175.857 A 168.286,168.286 0 0,1 258.740,114.260 L 269.597,133.065 A 146.571,146.571 0 0,0 215.948,186.714 z" fill-opacity="1" style="box-sizing: inherit; stroke: rgb(119, 119, 119); stroke-width: 1px; stroke-opacity: 0; stroke-dasharray: none;"/></g><path fill="rgb(107,174,214)" stroke-width="1" d="M 215.948,186.714 A 146.571,146.571 0 0,1 269.597,133.065 L 280.454,151.871 A 124.857,124.857 0 0,0 234.753,197.571 z" fill-opacity="1" style="box-sizing: inherit; stroke: rgb(119, 119, 119); stroke-width: 1px; stroke-opacity: 0; stroke-dasharray: none;"/></g><path fill="rgb(33,113,181)" stroke-width="1" d="M 234.753,197.571 A 124.857,124.857 0 0,1 280.454,151.871 L 291.311,170.676 A 103.143,103.143 0 0,0 253.558,208.429 z" fill-opacity="1" style="box-sizing: inherit; stroke: rgb(119, 119, 119); stroke-width: 1px; stroke-opacity: 0; stroke-dasharray: none;"/></g><path fill="rgb(198,219,239)" stroke-width="1" d="M 253.558,208.429 A 103.143,103.143 0 0,1 291.311,170.676 L 302.169,189.481 A 81.429,81.429 0 0,0 272.364,219.286 z" fill-opacity="1" style="box-sizing: inherit; stroke: rgb(119, 119, 119); stroke-width: 1px; stroke-opacity: 0; stroke-dasharray: none;"/></g><path fill="rgb(8,48,107)" stroke-width="1" d="M 272.364,219.286 A 81.429,81.429 0 0,1 302.169,189.481 L 313.026,208.286 A 59.714,59.714 0 0,0 291.169,230.143 z" fill-opacity="1" style="box-sizing: inherit; stroke: rgb(119, 119, 119); stroke-width: 1px; stroke-opacity: 0; stroke-dasharray: none;"/></g><path fill="rgb(107,174,214)" stroke-width="1" d="M 291.169,230.143 A 59.714,59.714 0 0,1 313.026,208.286 L 323.883,227.091 A 38.000,38.000 0 0,0 309.974,241.000 z" fill-opacity="1" style="box-sizing: inherit; stroke: rgb(119, 119, 119); stroke-width: 1px; stroke-opacity: 0; stroke-dasharray: none;"/></g><g class="wj-slice slice-level1" style="box-sizing: inherit;"><g class="wj-slice slice-level2" style="box-sizing: inherit;"><g class="wj-slice slice-level3" style="box-sizing: inherit;"><g class="wj-slice slice-level4" style="box-sizing: inherit;"><g class="wj-slice slice-level5" style="box-sizing: inherit;"><g class="wj-slice slice-level6" style="box-sizing: inherit;"><g class="wj-slice slice-level7" style="box-sizing: inherit;"><path fill="rgb(192,192,192)" stroke-width="1" d="M 247.883,95.455 A 190.000,190.000 0 0,1 342.883,70.000 L 342.883,91.714 A 168.286,168.286 0 0,0 258.740,114.260 z" fill-opacity="1" style="box-sizing: inherit; stroke: rgb(119, 119, 119); stroke-width: 1px; stroke-opacity: 0; stroke-dasharray: none;"/></g><path fill="rgb(33,113,181)" stroke-width="1" d="M 258.740,114.260 A 168.286,168.286 0 0,1 342.883,91.714 L 342.883,113.429 A 146.571,146.571 0 0,0 269.597,133.065 z" fill-opacity="1" style="box-sizing: inherit; stroke: rgb(119, 119, 119); stroke-width: 1px; stroke-opacity: 0; stroke-dasharray: none;"/></g><path fill="rgb(107,174,214)" stroke-width="1" d="M 269.597,133.065 A 146.571,146.571 0 0,1 342.883,113.429 L 342.883,135.143 A 124.857,124.857 0 0,0 280.454,151.871 z" fill-opacity="1" style="box-sizing: inherit; stroke: rgb(119, 119, 119); stroke-width: 1px; stroke-opacity: 0; stroke-dasharray: none;"/></g><path fill="rgb(33,113,181)" stroke-width="1" d="M 280.454,151.871 A 124.857,124.857 0 0,1 342.883,135.143 L 342.883,156.857 A 103.143,103.143 0 0,0 291.311,170.676 z" fill-opacity="1" style="box-sizing: inherit; stroke: rgb(119, 119, 119); stroke-width: 1px; stroke-opacity: 0; stroke-dasharray: none;"/></g><path fill="rgb(198,219,239)" stroke-width="1" d="M 291.311,170.676 A 103.143,103.143 0 0,1 342.883,156.857 L 342.883,178.571 A 81.429,81.429 0 0,0 302.169,189.481 z" fill-opacity="1" style="box-sizing: inherit; stroke: rgb(119, 119, 119); stroke-width: 1px; stroke-opacity: 0; stroke-dasharray: none;"/></g><path fill="rgb(8,48,107)" stroke-width="1" d="M 302.169,189.481 A 81.429,81.429 0 0,1 342.883,178.571 L 342.883,200.286 A 59.714,59.714 0 0,0 313.026,208.286 z" fill-opacity="1" style="box-sizing: inherit; stroke: rgb(119, 119, 119); stroke-width: 1px; stroke-opacity: 0; stroke-dasharray: none;"/></g><path fill="rgb(198,219,239)" stroke-width="1" d="M 313.026,208.286 A 59.714,59.714 0 0,1 342.883,200.286 L 342.883,222.000 A 38.000,38.000 0 0,0 323.883,227.091 z" fill-opacity="1" style="box-sizing: inherit; stroke: rgb(119, 119, 119); stroke-width: 1px; stroke-opacity: 0; stroke-dasharray: none;"/></g></g><g class="wj-data-labels" style="box-sizing: inherit;"><text x="344.9" y="80.5" class="wj-data-label esri-ring" fill="rgb(68,68,68)" fill-opacity="1" display="block" style="box-sizing: inherit; cursor: default; font-size: 9pt; font-family: &apos;Segoe UI&apos;; font-style: normal; font-weight: normal; display: block; fill: rgb(68, 68, 68); fill-opacity: 1;">2016</text><text x="394.6" y="62.8" class="wj-data-label esri-wedge" fill="rgb(68,68,68)" fill-opacity="1" display="block" style="box-sizing: inherit; cursor: default; font-size: 9pt; font-family: &apos;Segoe UI&apos;; font-style: normal; font-weight: normal; display: block; fill: rgb(68, 68, 68); fill-opacity: 1;">Jan</text><text x="344.9" y="102.2" class="wj-data-label esri-ring" fill="rgb(68,68,68)" fill-opacity="1" display="block" style="box-sizing: inherit; cursor: default; font-size: 9pt; font-family: &apos;Segoe UI&apos;; font-style: normal; font-weight: normal; display: block; fill: rgb(68, 68, 68); fill-opacity: 1;">2015</text><text x="344.9" y="124.0" class="wj-data-label esri-ring" fill="rgb(68,68,68)" fill-opacity="1" display="block" style="box-sizing: inherit; cursor: default; font-size: 9pt; font-family: &apos;Segoe UI&apos;; font-style: normal; font-weight: normal; display: block; fill: rgb(68, 68, 68); fill-opacity: 1;">2014</text><text x="344.9" y="145.7" class="wj-data-label esri-ring" fill="rgb(68,68,68)" fill-opacity="1" display="block" style="box-sizing: inherit; cursor: default; font-size: 9pt; font-family: &apos;Segoe UI&apos;; font-style: normal; font-weight: normal; display: block; fill: rgb(68, 68, 68); fill-opacity: 1;">2013</text><text x="344.9" y="167.3" class="wj-data-label esri-ring" fill="rgb(68,68,68)" fill-opacity="1" display="block" style="box-sizing: inherit; cursor: default; font-size: 9pt; font-family: &apos;Segoe UI&apos;; font-style: normal; font-weight: normal; display: block; fill: rgb(68, 68, 68); fill-opacity: 1;">2012</text><text x="344.9" y="189.0" class="wj-data-label esri-ring" fill="rgb(68,68,68)" fill-opacity="1" display="block" style="box-sizing: inherit; cursor: default; font-size: 9pt; font-family: &apos;Segoe UI&apos;; font-style: normal; font-weight: normal; display: block; fill: rgb(68, 68, 68); fill-opacity: 1;">2011</text><text x="344.9" y="210.8" class="wj-data-label esri-ring" fill="rgb(68,68,68)" fill-opacity="1" display="block" style="box-sizing: inherit; cursor: default; font-size: 9pt; font-family: &apos;Segoe UI&apos;; font-style: normal; font-weight: normal; display: block; fill: rgb(68, 68, 68); fill-opacity: 1;">2010</text><text x="484.3" y="114.6" class="wj-data-label esri-wedge" fill="rgb(68,68,68)" fill-opacity="1" display="block" style="box-sizing: inherit; cursor: default; font-size: 9pt; font-family: &apos;Segoe UI&apos;; font-style: normal; font-weight: normal; display: block; fill: rgb(68, 68, 68); fill-opacity: 1;">Feb</text><text x="536.1" y="204.3" class="wj-data-label esri-wedge" fill="rgb(68,68,68)" fill-opacity="1" display="block" style="box-sizing: inherit; cursor: default; font-size: 9pt; font-family: &apos;Segoe UI&apos;; font-style: normal; font-weight: normal; display: block; fill: rgb(68, 68, 68); fill-opacity: 1;">Mar</text><text x="536.1" y="326.7" class="wj-data-label esri-wedge" fill="rgb(68,68,68)" fill-opacity="1" display="block" style="box-sizing: inherit; cursor: default; font-size: 9pt; font-family: &apos;Segoe UI&apos;; font-style: normal; font-weight: normal; display: block; fill: rgb(68, 68, 68); fill-opacity: 1;">Apr</text><text x="484.3" y="416.4" class="wj-data-label esri-wedge" fill="rgb(68,68,68)" fill-opacity="1" display="block" style="box-sizing: inherit; cursor: default; font-size: 9pt; font-family: &apos;Segoe UI&apos;; font-style: normal; font-weight: normal; display: block; fill: rgb(68, 68, 68); fill-opacity: 1;">May</text><text x="394.6" y="468.2" class="wj-data-label esri-wedge" fill="rgb(68,68,68)" fill-opacity="1" display="block" style="box-sizing: inherit; cursor: default; font-size: 9pt; font-family: &apos;Segoe UI&apos;; font-style: normal; font-weight: normal; display: block; fill: rgb(68, 68, 68); fill-opacity: 1;">Jun</text><text x="272.9" y="468.2" class="wj-data-label esri-wedge" fill="rgb(68,68,68)" fill-opacity="1" display="block" style="box-sizing: inherit; cursor: default; font-size: 9pt; font-family: &apos;Segoe UI&apos;; font-style: normal; font-weight: normal; display: block; fill: rgb(68, 68, 68); fill-opacity: 1;">Jul</text><text x="175.8" y="416.4" class="wj-data-label esri-wedge" fill="rgb(68,68,68)" fill-opacity="1" display="block" style="box-sizing: inherit; cursor: default; font-size: 9pt; font-family: &apos;Segoe UI&apos;; font-style: normal; font-weight: normal; display: block; fill: rgb(68, 68, 68); fill-opacity: 1;">Aug</text><text x="126.0" y="326.7" class="wj-data-label esri-wedge" fill="rgb(68,68,68)" fill-opacity="1" display="block" style="box-sizing: inherit; cursor: default; font-size: 9pt; font-family: &apos;Segoe UI&apos;; font-style: normal; font-weight: normal; display: block; fill: rgb(68, 68, 68); fill-opacity: 1;">Sep</text><text x="126.3" y="204.3" class="wj-data-label esri-wedge" fill="rgb(68,68,68)" fill-opacity="1" display="block" style="box-sizing: inherit; cursor: default; font-size: 9pt; font-family: &apos;Segoe UI&apos;; font-style: normal; font-weight: normal; display: block; fill: rgb(68, 68, 68); fill-opacity: 1;">Oct</text><text x="174.8" y="114.6" class="wj-data-label esri-wedge" fill="rgb(68,68,68)" fill-opacity="1" display="block" style="box-sizing: inherit; cursor: default; font-size: 9pt; font-family: &apos;Segoe UI&apos;; font-style: normal; font-weight: normal; display: block; fill: rgb(68, 68, 68); fill-opacity: 1;">Nov</text><text x="266.3" y="62.8" class="wj-data-label esri-wedge" fill="rgb(68,68,68)" fill-opacity="1" display="block" style="box-sizing: inherit; cursor: default; font-size: 9pt; font-family: &apos;Segoe UI&apos;; font-style: normal; font-weight: normal; display: block; fill: rgb(68, 68, 68); fill-opacity: 1;">Dec</text></g></svg>