<svg xmlns="http://www.w3.org/2000/svg" width="750" height="500" style="box-sizing: inherit; font-family: Calibri;"><rect id="backgroundRect" width="100%" height="100%" x="0" y="0" fill="rgb(255,255,255)" fill-opacity="1" visibility="visible" style="box-sizing: inherit; fill: rgb(255, 255, 255); fill-opacity: 1; display: block;"/><defs style="box-sizing: inherit;"/><clipPath id="chartRect654064" style="box-sizing: inherit;"><rect x="-1.0" y="-1.0" width="747.0" height="494.0" style="box-sizing: inherit;"/></clipPath><g class="wj-header" style="box-sizing: inherit; background: rgb(238, 238, 238); color: rgb(68, 68, 68); font-weight: 700;" clip-path="url(#chartRect654064)"><text x="209.5" y="23.0" fill="rgb(68,68,68)" class="wj-title" fill-opacity="1" display="block" style="box-sizing: inherit; cursor: default; font-size: 16pt; font-family: &apos;Segoe UI&apos;; font-style: normal; font-weight: normal; display: block; fill: rgb(68, 68, 68); fill-opacity: 1;">Volume Injection Rate (2012-2018)</text></g><g class="wj-footer" style="box-sizing: inherit;" clip-path="url(#chartRect654064)"/><clipPath id="legRect294888" style="box-sizing: inherit;"><rect x="645.9" y="184.0" width="100.1" height="152.0" style="box-sizing: inherit;"/></clipPath><g class="wj-legend" style="box-sizing: inherit;" clip-path="url(#legRect294888)"><rect fill="rgb(247,251,255)" stroke="rgb(247,251,255)" stroke-width="1" x="650.9" y="192.5" width="10.0" height="10.0" fill-opacity="1" stroke-opacity="1" style="box-sizing: inherit;"/><text x="664.9" y="203.5" class="wj-label" fill="rgb(68,68,68)" fill-opacity="1" display="block" style="box-sizing: inherit; cursor: default; font-size: 10pt; font-family: &apos;Segoe UI&apos;; font-style: normal; font-weight: normal; display: block; fill: rgb(68, 68, 68); fill-opacity: 1;"> ≤ 4,143,521</text><rect fill="rgb(198,219,239)" stroke="rgb(198,219,239)" stroke-width="1" x="650.9" y="217.5" width="10.0" height="10.0" fill-opacity="1" stroke-opacity="1" style="box-sizing: inherit;"/><text x="664.9" y="228.5" class="wj-label" fill="rgb(68,68,68)" fill-opacity="1" display="block" style="box-sizing: inherit; cursor: default; font-size: 10pt; font-family: &apos;Segoe UI&apos;; font-style: normal; font-weight: normal; display: block; fill: rgb(68, 68, 68); fill-opacity: 1;"> ≤ 20,902,780</text><rect fill="rgb(107,174,214)" stroke="rgb(107,174,214)" stroke-width="1" x="650.9" y="242.5" width="10.0" height="10.0" fill-opacity="1" stroke-opacity="1" style="box-sizing: inherit;"/><text x="664.9" y="253.5" class="wj-label" fill="rgb(68,68,68)" fill-opacity="1" display="block" style="box-sizing: inherit; cursor: default; font-size: 10pt; font-family: &apos;Segoe UI&apos;; font-style: normal; font-weight: normal; display: block; fill: rgb(68, 68, 68); fill-opacity: 1;"> ≤ 51,328,155</text><rect fill="rgb(33,113,181)" stroke="rgb(33,113,181)" stroke-width="1" x="650.9" y="267.5" width="10.0" height="10.0" fill-opacity="1" stroke-opacity="1" style="box-sizing: inherit;"/><text x="664.9" y="278.5" class="wj-label" fill="rgb(68,68,68)" fill-opacity="1" display="block" style="box-sizing: inherit; cursor: default; font-size: 10pt; font-family: &apos;Segoe UI&apos;; font-style: normal; font-weight: normal; display: block; fill: rgb(68, 68, 68); fill-opacity: 1;"> ≤ 63,854,108</text><rect fill="rgb(8,48,107)" stroke="rgb(8,48,107)" stroke-width="1" x="650.9" y="292.5" width="10.0" height="10.0" fill-opacity="1" stroke-opacity="1" style="box-sizing: inherit;"/><text x="664.9" y="303.5" class="wj-label" fill="rgb(68,68,68)" fill-opacity="1" display="block" style="box-sizing: inherit; cursor: default; font-size: 10pt; font-family: &apos;Segoe UI&apos;; font-style: normal; font-weight: normal; display: block; fill: rgb(68, 68, 68); fill-opacity: 1;"> ≤ 78,503,336</text><rect fill="rgb(192,192,192)" stroke="rgb(192,192,192)" stroke-width="1" x="650.9" y="317.5" width="10.0" height="10.0" fill-opacity="1" stroke-opacity="1" style="box-sizing: inherit;"/><text x="664.9" y="328.5" class="wj-label" fill="rgb(68,68,68)" fill-opacity="1" display="block" style="box-sizing: inherit; cursor: default; font-size: 10pt; font-family: &apos;Segoe UI&apos;; font-style: normal; font-weight: normal; display: block; fill: rgb(68, 68, 68); fill-opacity: 1;">Null</text></g><g class="wj-slice-group" transform="matrix(1 0 0 1 0 0)" style="box-sizing: inherit;"><g class="wj-slice slice-level1" style="box-sizing: inherit;"><g class="wj-slice slice-level2" style="box-sizing: inherit;"><g class="wj-slice slice-level3" style="box-sizing: inherit;"><g class="wj-slice slice-level4" style="box-sizing: inherit;"><g class="wj-slice slice-level5" style="box-sizing: inherit;"><g class="wj-slice slice-level6" style="box-sizing: inherit;"><g class="wj-slice slice-level7" style="box-sizing: inherit;"><path fill="rgb(107,174,214)" stroke-width="1" d="M 323.469,70.000 A 190.000,190.000 0 0,1 418.469,95.455 L 407.612,114.260 A 168.286,168.286 0 0,0 323.469,91.714 z" fill-opacity="1" style="box-sizing: inherit; stroke: rgb(119, 119, 119); stroke-width: 1px; stroke-opacity: 0; stroke-dasharray: none;"/></g><path fill="rgb(33,113,181)" stroke-width="1" d="M 323.469,91.714 A 168.286,168.286 0 0,1 407.612,114.260 L 396.754,133.065 A 146.571,146.571 0 0,0 323.469,113.429 z" fill-opacity="1" style="box-sizing: inherit; stroke: rgb(119, 119, 119); stroke-width: 1px; stroke-opacity: 0; stroke-dasharray: none;"/></g><path fill="rgb(8,48,107)" stroke-width="1" d="M 323.469,113.429 A 146.571,146.571 0 0,1 396.754,133.065 L 385.897,151.871 A 124.857,124.857 0 0,0 323.469,135.143 z" fill-opacity="1" style="box-sizing: inherit; stroke: rgb(119, 119, 119); stroke-width: 1px; stroke-opacity: 0; stroke-dasharray: none;"/></g><path fill="rgb(8,48,107)" stroke-width="1" d="M 323.469,135.143 A 124.857,124.857 0 0,1 385.897,151.871 L 375.040,170.676 A 103.143,103.143 0 0,0 323.469,156.857 z" fill-opacity="1" style="box-sizing: inherit; stroke: rgb(119, 119, 119); stroke-width: 1px; stroke-opacity: 0; stroke-dasharray: none;"/></g><path fill="rgb(247,251,255)" stroke-width="1" d="M 323.469,156.857 A 103.143,103.143 0 0,1 375.040,170.676 L 364.183,189.481 A 81.429,81.429 0 0,0 323.469,178.571 z" fill-opacity="1" style="box-sizing: inherit; stroke: rgb(119, 119, 119); stroke-width: 1px; stroke-opacity: 0; stroke-dasharray: none;"/></g><path fill="rgb(247,251,255)" stroke-width="1" d="M 323.469,178.571 A 81.429,81.429 0 0,1 364.183,189.481 L 353.326,208.286 A 59.714,59.714 0 0,0 323.469,200.286 z" fill-opacity="1" style="box-sizing: inherit; stroke: rgb(119, 119, 119); stroke-width: 1px; stroke-opacity: 0; stroke-dasharray: none;"/></g><path fill="rgb(192,192,192)" stroke-width="1" d="M 323.469,200.286 A 59.714,59.714 0 0,1 353.326,208.286 L 342.469,227.091 A 38.000,38.000 0 0,0 323.469,222.000 z" fill-opacity="1" style="box-sizing: inherit; stroke: rgb(119, 119, 119); stroke-width: 1px; stroke-opacity: 0; stroke-dasharray: none;"/></g><g class="wj-slice slice-level1" style="box-sizing: inherit;"><g class="wj-slice slice-level2" style="box-sizing: inherit;"><g class="wj-slice slice-level3" style="box-sizing: inherit;"><g class="wj-slice slice-level4" style="box-sizing: inherit;"><g class="wj-slice slice-level5" style="box-sizing: inherit;"><g class="wj-slice slice-level6" style="box-sizing: inherit;"><g class="wj-slice slice-level7" style="box-sizing: inherit;"><path fill="rgb(107,174,214)" stroke-width="1" d="M 418.469,95.455 A 190.000,190.000 0 0,1 488.014,165.000 L 469.208,175.857 A 168.286,168.286 0 0,0 407.612,114.260 z" fill-opacity="1" style="box-sizing: inherit; stroke: rgb(119, 119, 119); stroke-width: 1px; stroke-opacity: 0; stroke-dasharray: none;"/></g><path fill="rgb(107,174,214)" stroke-width="1" d="M 407.612,114.260 A 168.286,168.286 0 0,1 469.208,175.857 L 450.403,186.714 A 146.571,146.571 0 0,0 396.754,133.065 z" fill-opacity="1" style="box-sizing: inherit; stroke: rgb(119, 119, 119); stroke-width: 1px; stroke-opacity: 0; stroke-dasharray: none;"/></g><path fill="rgb(33,113,181)" stroke-width="1" d="M 396.754,133.065 A 146.571,146.571 0 0,1 450.403,186.714 L 431.598,197.571 A 124.857,124.857 0 0,0 385.897,151.871 z" fill-opacity="1" style="box-sizing: inherit; stroke: rgb(119, 119, 119); stroke-width: 1px; stroke-opacity: 0; stroke-dasharray: none;"/></g><path fill="rgb(8,48,107)" stroke-width="1" d="M 385.897,151.871 A 124.857,124.857 0 0,1 431.598,197.571 L 412.793,208.429 A 103.143,103.143 0 0,0 375.040,170.676 z" fill-opacity="1" style="box-sizing: inherit; stroke: rgb(119, 119, 119); stroke-width: 1px; stroke-opacity: 0; stroke-dasharray: none;"/></g><path fill="rgb(247,251,255)" stroke-width="1" d="M 375.040,170.676 A 103.143,103.143 0 0,1 412.793,208.429 L 393.988,219.286 A 81.429,81.429 0 0,0 364.183,189.481 z" fill-opacity="1" style="box-sizing: inherit; stroke: rgb(119, 119, 119); stroke-width: 1px; stroke-opacity: 0; stroke-dasharray: none;"/></g><path fill="rgb(247,251,255)" stroke-width="1" d="M 364.183,189.481 A 81.429,81.429 0 0,1 393.988,219.286 L 375.183,230.143 A 59.714,59.714 0 0,0 353.326,208.286 z" fill-opacity="1" style="box-sizing: inherit; stroke: rgb(119, 119, 119); stroke-width: 1px; stroke-opacity: 0; stroke-dasharray: none;"/></g><path fill="rgb(192,192,192)" stroke-width="1" d="M 353.326,208.286 A 59.714,59.714 0 0,1 375.183,230.143 L 356.378,241.000 A 38.000,38.000 0 0,0 342.469,227.091 z" fill-opacity="1" style="box-sizing: inherit; stroke: rgb(119, 119, 119); stroke-width: 1px; stroke-opacity: 0; stroke-dasharray: none;"/></g><g class="wj-slice slice-level1" style="box-sizing: inherit;"><g class="wj-slice slice-level2" style="box-sizing: inherit;"><g class="wj-slice slice-level3" style="box-sizing: inherit;"><g class="wj-slice slice-level4" style="box-sizing: inherit;"><g class="wj-slice slice-level5" style="box-sizing: inherit;"><g class="wj-slice slice-level6" style="box-sizing: inherit;"><g class="wj-slice slice-level7" style="box-sizing: inherit;"><path fill="rgb(107,174,214)" stroke-width="1" d="M 488.014,165.000 A 190.000,190.000 0 0,1 513.469,260.000 L 491.754,260.000 A 168.286,168.286 0 0,0 469.208,175.857 z" fill-opacity="1" style="box-sizing: inherit; stroke: rgb(119, 119, 119); stroke-width: 1px; stroke-opacity: 0; stroke-dasharray: none;"/></g><path fill="rgb(33,113,181)" stroke-width="1" d="M 469.208,175.857 A 168.286,168.286 0 0,1 491.754,260.000 L 470.040,260.000 A 146.571,146.571 0 0,0 450.403,186.714 z" fill-opacity="1" style="box-sizing: inherit; stroke: rgb(119, 119, 119); stroke-width: 1px; stroke-opacity: 0; stroke-dasharray: none;"/></g><path fill="rgb(8,48,107)" stroke-width="1" d="M 450.403,186.714 A 146.571,146.571 0 0,1 470.040,260.000 L 448.326,260.000 A 124.857,124.857 0 0,0 431.598,197.571 z" fill-opacity="1" style="box-sizing: inherit; stroke: rgb(119, 119, 119); stroke-width: 1px; stroke-opacity: 0; stroke-dasharray: none;"/></g><path fill="rgb(8,48,107)" stroke-width="1" d="M 431.598,197.571 A 124.857,124.857 0 0,1 448.326,260.000 L 426.612,260.000 A 103.143,103.143 0 0,0 412.793,208.429 z" fill-opacity="1" style="box-sizing: inherit; stroke: rgb(119, 119, 119); stroke-width: 1px; stroke-opacity: 0; stroke-dasharray: none;"/></g><path fill="rgb(247,251,255)" stroke-width="1" d="M 412.793,208.429 A 103.143,103.143 0 0,1 426.612,260.000 L 404.897,260.000 A 81.429,81.429 0 0,0 393.988,219.286 z" fill-opacity="1" style="box-sizing: inherit; stroke: rgb(119, 119, 119); stroke-width: 1px; stroke-opacity: 0; stroke-dasharray: none;"/></g><path fill="rgb(247,251,255)" stroke-width="1" d="M 393.988,219.286 A 81.429,81.429 0 0,1 404.897,260.000 L 383.183,260.000 A 59.714,59.714 0 0,0 375.183,230.143 z" fill-opacity="1" style="box-sizing: inherit; stroke: rgb(119, 119, 119); stroke-width: 1px; stroke-opacity: 0; stroke-dasharray: none;"/></g><path fill="rgb(192,192,192)" stroke-width="1" d="M 375.183,230.143 A 59.714,59.714 0 0,1 383.183,260.000 L 361.469,260.000 A 38.000,38.000 0 0,0 356.378,241.000 z" fill-opacity="1" style="box-sizing: inherit; stroke: rgb(119, 119, 119); stroke-width: 1px; stroke-opacity: 0; stroke-dasharray: none;"/></g><g class="wj-slice slice-level1" style="box-sizing: inherit;"><g class="wj-slice slice-level2" style="box-sizing: inherit;"><g class="wj-slice slice-level3" style="box-sizing: inherit;"><g class="wj-slice slice-level4" style="box-sizing: inherit;"><g class="wj-slice slice-level5" style="box-sizing: inherit;"><g class="wj-slice slice-level6" style="box-sizing: inherit;"><g class="wj-slice slice-level7" style="box-sizing: inherit;"><path fill="rgb(107,174,214)" stroke-width="1" d="M 513.469,260.000 A 190.000,190.000 0 0,1 488.014,355.000 L 469.208,344.143 A 168.286,168.286 0 0,0 491.754,260.000 z" fill-opacity="1" style="box-sizing: inherit; stroke: rgb(119, 119, 119); stroke-width: 1px; stroke-opacity: 0; stroke-dasharray: none;"/></g><path fill="rgb(107,174,214)" stroke-width="1" d="M 491.754,260.000 A 168.286,168.286 0 0,1 469.208,344.143 L 450.403,333.286 A 146.571,146.571 0 0,0 470.040,260.000 z" fill-opacity="1" style="box-sizing: inherit; stroke: rgb(119, 119, 119); stroke-width: 1px; stroke-opacity: 0; stroke-dasharray: none;"/></g><path fill="rgb(33,113,181)" stroke-width="1" d="M 470.040,260.000 A 146.571,146.571 0 0,1 450.403,333.286 L 431.598,322.429 A 124.857,124.857 0 0,0 448.326,260.000 z" fill-opacity="1" style="box-sizing: inherit; stroke: rgb(119, 119, 119); stroke-width: 1px; stroke-opacity: 0; stroke-dasharray: none;"/></g><path fill="rgb(8,48,107)" stroke-width="1" d="M 448.326,260.000 A 124.857,124.857 0 0,1 431.598,322.429 L 412.793,311.571 A 103.143,103.143 0 0,0 426.612,260.000 z" fill-opacity="1" style="box-sizing: inherit; stroke: rgb(119, 119, 119); stroke-width: 1px; stroke-opacity: 0; stroke-dasharray: none;"/></g><path fill="rgb(247,251,255)" stroke-width="1" d="M 426.612,260.000 A 103.143,103.143 0 0,1 412.793,311.571 L 393.988,300.714 A 81.429,81.429 0 0,0 404.897,260.000 z" fill-opacity="1" style="box-sizing: inherit; stroke: rgb(119, 119, 119); stroke-width: 1px; stroke-opacity: 0; stroke-dasharray: none;"/></g><path fill="rgb(247,251,255)" stroke-width="1" d="M 404.897,260.000 A 81.429,81.429 0 0,1 393.988,300.714 L 375.183,289.857 A 59.714,59.714 0 0,0 383.183,260.000 z" fill-opacity="1" style="box-sizing: inherit; stroke: rgb(119, 119, 119); stroke-width: 1px; stroke-opacity: 0; stroke-dasharray: none;"/></g><path fill="rgb(192,192,192)" stroke-width="1" d="M 383.183,260.000 A 59.714,59.714 0 0,1 375.183,289.857 L 356.378,279.000 A 38.000,38.000 0 0,0 361.469,260.000 z" fill-opacity="1" style="box-sizing: inherit; stroke: rgb(119, 119, 119); stroke-width: 1px; stroke-opacity: 0; stroke-dasharray: none;"/></g><g class="wj-slice slice-level1" style="box-sizing: inherit;"><g class="wj-slice slice-level2" style="box-sizing: inherit;"><g class="wj-slice slice-level3" style="box-sizing: inherit;"><g class="wj-slice slice-level4" style="box-sizing: inherit;"><g class="wj-slice slice-level5" style="box-sizing: inherit;"><g class="wj-slice slice-level6" style="box-sizing: inherit;"><g class="wj-slice slice-level7" style="box-sizing: inherit;"><path fill="rgb(107,174,214)" stroke-width="1" d="M 488.014,355.000 A 190.000,190.000 0 0,1 418.469,424.545 L 407.612,405.740 A 168.286,168.286 0 0,0 469.208,344.143 z" fill-opacity="1" style="box-sizing: inherit; stroke: rgb(119, 119, 119); stroke-width: 1px; stroke-opacity: 0; stroke-dasharray: none;"/></g><path fill="rgb(107,174,214)" stroke-width="1" d="M 469.208,344.143 A 168.286,168.286 0 0,1 407.612,405.740 L 396.754,386.935 A 146.571,146.571 0 0,0 450.403,333.286 z" fill-opacity="1" style="box-sizing: inherit; stroke: rgb(119, 119, 119); stroke-width: 1px; stroke-opacity: 0; stroke-dasharray: none;"/></g><path fill="rgb(33,113,181)" stroke-width="1" d="M 450.403,333.286 A 146.571,146.571 0 0,1 396.754,386.935 L 385.897,368.129 A 124.857,124.857 0 0,0 431.598,322.429 z" fill-opacity="1" style="box-sizing: inherit; stroke: rgb(119, 119, 119); stroke-width: 1px; stroke-opacity: 0; stroke-dasharray: none;"/></g><path fill="rgb(8,48,107)" stroke-width="1" d="M 431.598,322.429 A 124.857,124.857 0 0,1 385.897,368.129 L 375.040,349.324 A 103.143,103.143 0 0,0 412.793,311.571 z" fill-opacity="1" style="box-sizing: inherit; stroke: rgb(119, 119, 119); stroke-width: 1px; stroke-opacity: 0; stroke-dasharray: none;"/></g><path fill="rgb(247,251,255)" stroke-width="1" d="M 412.793,311.571 A 103.143,103.143 0 0,1 375.040,349.324 L 364.183,330.519 A 81.429,81.429 0 0,0 393.988,300.714 z" fill-opacity="1" style="box-sizing: inherit; stroke: rgb(119, 119, 119); stroke-width: 1px; stroke-opacity: 0; stroke-dasharray: none;"/></g><path fill="rgb(247,251,255)" stroke-width="1" d="M 393.988,300.714 A 81.429,81.429 0 0,1 364.183,330.519 L 353.326,311.714 A 59.714,59.714 0 0,0 375.183,289.857 z" fill-opacity="1" style="box-sizing: inherit; stroke: rgb(119, 119, 119); stroke-width: 1px; stroke-opacity: 0; stroke-dasharray: none;"/></g><path fill="rgb(192,192,192)" stroke-width="1" d="M 375.183,289.857 A 59.714,59.714 0 0,1 353.326,311.714 L 342.469,292.909 A 38.000,38.000 0 0,0 356.378,279.000 z" fill-opacity="1" style="box-sizing: inherit; stroke: rgb(119, 119, 119); stroke-width: 1px; stroke-opacity: 0; stroke-dasharray: none;"/></g><g class="wj-slice slice-level1" style="box-sizing: inherit;"><g class="wj-slice slice-level2" style="box-sizing: inherit;"><g class="wj-slice slice-level3" style="box-sizing: inherit;"><g class="wj-slice slice-level4" style="box-sizing: inherit;"><g class="wj-slice slice-level5" style="box-sizing: inherit;"><g class="wj-slice slice-level6" style="box-sizing: inherit;"><g class="wj-slice slice-level7" style="box-sizing: inherit;"><path fill="rgb(107,174,214)" stroke-width="1" d="M 418.469,424.545 A 190.000,190.000 0 0,1 323.469,450.000 L 323.469,428.286 A 168.286,168.286 0 0,0 407.612,405.740 z" fill-opacity="1" style="box-sizing: inherit; stroke: rgb(119, 119, 119); stroke-width: 1px; stroke-opacity: 0; stroke-dasharray: none;"/></g><path fill="rgb(107,174,214)" stroke-width="1" d="M 407.612,405.740 A 168.286,168.286 0 0,1 323.469,428.286 L 323.469,406.571 A 146.571,146.571 0 0,0 396.754,386.935 z" fill-opacity="1" style="box-sizing: inherit; stroke: rgb(119, 119, 119); stroke-width: 1px; stroke-opacity: 0; stroke-dasharray: none;"/></g><path fill="rgb(33,113,181)" stroke-width="1" d="M 396.754,386.935 A 146.571,146.571 0 0,1 323.469,406.571 L 323.469,384.857 A 124.857,124.857 0 0,0 385.897,368.129 z" fill-opacity="1" style="box-sizing: inherit; stroke: rgb(119, 119, 119); stroke-width: 1px; stroke-opacity: 0; stroke-dasharray: none;"/></g><path fill="rgb(8,48,107)" stroke-width="1" d="M 385.897,368.129 A 124.857,124.857 0 0,1 323.469,384.857 L 323.469,363.143 A 103.143,103.143 0 0,0 375.040,349.324 z" fill-opacity="1" style="box-sizing: inherit; stroke: rgb(119, 119, 119); stroke-width: 1px; stroke-opacity: 0; stroke-dasharray: none;"/></g><path fill="rgb(247,251,255)" stroke-width="1" d="M 375.040,349.324 A 103.143,103.143 0 0,1 323.469,363.143 L 323.469,341.429 A 81.429,81.429 0 0,0 364.183,330.519 z" fill-opacity="1" style="box-sizing: inherit; stroke: rgb(119, 119, 119); stroke-width: 1px; stroke-opacity: 0; stroke-dasharray: none;"/></g><path fill="rgb(247,251,255)" stroke-width="1" d="M 364.183,330.519 A 81.429,81.429 0 0,1 323.469,341.429 L 323.469,319.714 A 59.714,59.714 0 0,0 353.326,311.714 z" fill-opacity="1" style="box-sizing: inherit; stroke: rgb(119, 119, 119); stroke-width: 1px; stroke-opacity: 0; stroke-dasharray: none;"/></g><path fill="rgb(192,192,192)" stroke-width="1" d="M 353.326,311.714 A 59.714,59.714 0 0,1 323.469,319.714 L 323.469,298.000 A 38.000,38.000 0 0,0 342.469,292.909 z" fill-opacity="1" style="box-sizing: inherit; stroke: rgb(119, 119, 119); stroke-width: 1px; stroke-opacity: 0; stroke-dasharray: none;"/></g><g class="wj-slice slice-level1" style="box-sizing: inherit;"><g class="wj-slice slice-level2" style="box-sizing: inherit;"><g class="wj-slice slice-level3" style="box-sizing: inherit;"><g class="wj-slice slice-level4" style="box-sizing: inherit;"><g class="wj-slice slice-level5" style="box-sizing: inherit;"><g class="wj-slice slice-level6" style="box-sizing: inherit;"><g class="wj-slice slice-level7" style="box-sizing: inherit;"><path fill="rgb(198,219,239)" stroke-width="1" d="M 323.469,450.000 A 190.000,190.000 0 0,1 228.469,424.545 L 239.326,405.740 A 168.286,168.286 0 0,0 323.469,428.286 z" fill-opacity="1" style="box-sizing: inherit; stroke: rgb(119, 119, 119); stroke-width: 1px; stroke-opacity: 0; stroke-dasharray: none;"/></g><path fill="rgb(107,174,214)" stroke-width="1" d="M 323.469,428.286 A 168.286,168.286 0 0,1 239.326,405.740 L 250.183,386.935 A 146.571,146.571 0 0,0 323.469,406.571 z" fill-opacity="1" style="box-sizing: inherit; stroke: rgb(119, 119, 119); stroke-width: 1px; stroke-opacity: 0; stroke-dasharray: none;"/></g><path fill="rgb(33,113,181)" stroke-width="1" d="M 323.469,406.571 A 146.571,146.571 0 0,1 250.183,386.935 L 261.040,368.129 A 124.857,124.857 0 0,0 323.469,384.857 z" fill-opacity="1" style="box-sizing: inherit; stroke: rgb(119, 119, 119); stroke-width: 1px; stroke-opacity: 0; stroke-dasharray: none;"/></g><path fill="rgb(8,48,107)" stroke-width="1" d="M 323.469,384.857 A 124.857,124.857 0 0,1 261.040,368.129 L 271.897,349.324 A 103.143,103.143 0 0,0 323.469,363.143 z" fill-opacity="1" style="box-sizing: inherit; stroke: rgb(119, 119, 119); stroke-width: 1px; stroke-opacity: 0; stroke-dasharray: none;"/></g><path fill="rgb(247,251,255)" stroke-width="1" d="M 323.469,363.143 A 103.143,103.143 0 0,1 271.897,349.324 L 282.754,330.519 A 81.429,81.429 0 0,0 323.469,341.429 z" fill-opacity="1" style="box-sizing: inherit; stroke: rgb(119, 119, 119); stroke-width: 1px; stroke-opacity: 0; stroke-dasharray: none;"/></g><path fill="rgb(247,251,255)" stroke-width="1" d="M 323.469,341.429 A 81.429,81.429 0 0,1 282.754,330.519 L 293.612,311.714 A 59.714,59.714 0 0,0 323.469,319.714 z" fill-opacity="1" style="box-sizing: inherit; stroke: rgb(119, 119, 119); stroke-width: 1px; stroke-opacity: 0; stroke-dasharray: none;"/></g><path fill="rgb(192,192,192)" stroke-width="1" d="M 323.469,319.714 A 59.714,59.714 0 0,1 293.612,311.714 L 304.469,292.909 A 38.000,38.000 0 0,0 323.469,298.000 z" fill-opacity="1" style="box-sizing: inherit; stroke: rgb(119, 119, 119); stroke-width: 1px; stroke-opacity: 0; stroke-dasharray: none;"/></g><g class="wj-slice slice-level1" style="box-sizing: inherit;"><g class="wj-slice slice-level2" style="box-sizing: inherit;"><g class="wj-slice slice-level3" style="box-sizing: inherit;"><g class="wj-slice slice-level4" style="box-sizing: inherit;"><g class="wj-slice slice-level5" style="box-sizing: inherit;"><g class="wj-slice slice-level6" style="box-sizing: inherit;"><g class="wj-slice slice-level7" style="box-sizing: inherit;"><path fill="rgb(192,192,192)" stroke-width="1" d="M 228.469,424.545 A 190.000,190.000 0 0,1 158.924,355.000 L 177.729,344.143 A 168.286,168.286 0 0,0 239.326,405.740 z" fill-opacity="1" style="box-sizing: inherit; stroke: rgb(119, 119, 119); stroke-width: 1px; stroke-opacity: 0; stroke-dasharray: none;"/></g><path fill="rgb(107,174,214)" stroke-width="1" d="M 239.326,405.740 A 168.286,168.286 0 0,1 177.729,344.143 L 196.534,333.286 A 146.571,146.571 0 0,0 250.183,386.935 z" fill-opacity="1" style="box-sizing: inherit; stroke: rgb(119, 119, 119); stroke-width: 1px; stroke-opacity: 0; stroke-dasharray: none;"/></g><path fill="rgb(33,113,181)" stroke-width="1" d="M 250.183,386.935 A 146.571,146.571 0 0,1 196.534,333.286 L 215.339,322.429 A 124.857,124.857 0 0,0 261.040,368.129 z" fill-opacity="1" style="box-sizing: inherit; stroke: rgb(119, 119, 119); stroke-width: 1px; stroke-opacity: 0; stroke-dasharray: none;"/></g><path fill="rgb(8,48,107)" stroke-width="1" d="M 261.040,368.129 A 124.857,124.857 0 0,1 215.339,322.429 L 234.144,311.571 A 103.143,103.143 0 0,0 271.897,349.324 z" fill-opacity="1" style="box-sizing: inherit; stroke: rgb(119, 119, 119); stroke-width: 1px; stroke-opacity: 0; stroke-dasharray: none;"/></g><path fill="rgb(198,219,239)" stroke-width="1" d="M 271.897,349.324 A 103.143,103.143 0 0,1 234.144,311.571 L 252.950,300.714 A 81.429,81.429 0 0,0 282.754,330.519 z" fill-opacity="1" style="box-sizing: inherit; stroke: rgb(119, 119, 119); stroke-width: 1px; stroke-opacity: 0; stroke-dasharray: none;"/></g><path fill="rgb(247,251,255)" stroke-width="1" d="M 282.754,330.519 A 81.429,81.429 0 0,1 252.950,300.714 L 271.755,289.857 A 59.714,59.714 0 0,0 293.612,311.714 z" fill-opacity="1" style="box-sizing: inherit; stroke: rgb(119, 119, 119); stroke-width: 1px; stroke-opacity: 0; stroke-dasharray: none;"/></g><path fill="rgb(192,192,192)" stroke-width="1" d="M 293.612,311.714 A 59.714,59.714 0 0,1 271.755,289.857 L 290.560,279.000 A 38.000,38.000 0 0,0 304.469,292.909 z" fill-opacity="1" style="box-sizing: inherit; stroke: rgb(119, 119, 119); stroke-width: 1px; stroke-opacity: 0; stroke-dasharray: none;"/></g><g class="wj-slice slice-level1" style="box-sizing: inherit;"><g class="wj-slice slice-level2" style="box-sizing: inherit;"><g class="wj-slice slice-level3" style="box-sizing: inherit;"><g class="wj-slice slice-level4" style="box-sizing: inherit;"><g class="wj-slice slice-level5" style="box-sizing: inherit;"><g class="wj-slice slice-level6" style="box-sizing: inherit;"><g class="wj-slice slice-level7" style="box-sizing: inherit;"><path fill="rgb(192,192,192)" stroke-width="1" d="M 158.924,355.000 A 190.000,190.000 0 0,1 133.469,260.000 L 155.183,260.000 A 168.286,168.286 0 0,0 177.729,344.143 z" fill-opacity="1" style="box-sizing: inherit; stroke: rgb(119, 119, 119); stroke-width: 1px; stroke-opacity: 0; stroke-dasharray: none;"/></g><path fill="rgb(107,174,214)" stroke-width="1" d="M 177.729,344.143 A 168.286,168.286 0 0,1 155.183,260.000 L 176.897,260.000 A 146.571,146.571 0 0,0 196.534,333.286 z" fill-opacity="1" style="box-sizing: inherit; stroke: rgb(119, 119, 119); stroke-width: 1px; stroke-opacity: 0; stroke-dasharray: none;"/></g><path fill="rgb(33,113,181)" stroke-width="1" d="M 196.534,333.286 A 146.571,146.571 0 0,1 176.897,260.000 L 198.612,260.000 A 124.857,124.857 0 0,0 215.339,322.429 z" fill-opacity="1" style="box-sizing: inherit; stroke: rgb(119, 119, 119); stroke-width: 1px; stroke-opacity: 0; stroke-dasharray: none;"/></g><path fill="rgb(8,48,107)" stroke-width="1" d="M 215.339,322.429 A 124.857,124.857 0 0,1 198.612,260.000 L 220.326,260.000 A 103.143,103.143 0 0,0 234.144,311.571 z" fill-opacity="1" style="box-sizing: inherit; stroke: rgb(119, 119, 119); stroke-width: 1px; stroke-opacity: 0; stroke-dasharray: none;"/></g><path fill="rgb(198,219,239)" stroke-width="1" d="M 234.144,311.571 A 103.143,103.143 0 0,1 220.326,260.000 L 242.040,260.000 A 81.429,81.429 0 0,0 252.950,300.714 z" fill-opacity="1" style="box-sizing: inherit; stroke: rgb(119, 119, 119); stroke-width: 1px; stroke-opacity: 0; stroke-dasharray: none;"/></g><path fill="rgb(247,251,255)" stroke-width="1" d="M 252.950,300.714 A 81.429,81.429 0 0,1 242.040,260.000 L 263.754,260.000 A 59.714,59.714 0 0,0 271.755,289.857 z" fill-opacity="1" style="box-sizing: inherit; stroke: rgb(119, 119, 119); stroke-width: 1px; stroke-opacity: 0; stroke-dasharray: none;"/></g><path fill="rgb(247,251,255)" stroke-width="1" d="M 271.755,289.857 A 59.714,59.714 0 0,1 263.754,260.000 L 285.469,260.000 A 38.000,38.000 0 0,0 290.560,279.000 z" fill-opacity="1" style="box-sizing: inherit; stroke: rgb(119, 119, 119); stroke-width: 1px; stroke-opacity: 0; stroke-dasharray: none;"/></g><g class="wj-slice slice-level1" style="box-sizing: inherit;"><g class="wj-slice slice-level2" style="box-sizing: inherit;"><g class="wj-slice slice-level3" style="box-sizing: inherit;"><g class="wj-slice slice-level4" style="box-sizing: inherit;"><g class="wj-slice slice-level5" style="box-sizing: inherit;"><g class="wj-slice slice-level6" style="box-sizing: inherit;"><g class="wj-slice slice-level7" style="box-sizing: inherit;"><path fill="rgb(192,192,192)" stroke-width="1" d="M 133.469,260.000 A 190.000,190.000 0 0,1 158.924,165.000 L 177.729,175.857 A 168.286,168.286 0 0,0 155.183,260.000 z" fill-opacity="1" style="box-sizing: inherit; stroke: rgb(119, 119, 119); stroke-width: 1px; stroke-opacity: 0; stroke-dasharray: none;"/></g><path fill="rgb(107,174,214)" stroke-width="1" d="M 155.183,260.000 A 168.286,168.286 0 0,1 177.729,175.857 L 196.534,186.714 A 146.571,146.571 0 0,0 176.897,260.000 z" fill-opacity="1" style="box-sizing: inherit; stroke: rgb(119, 119, 119); stroke-width: 1px; stroke-opacity: 0; stroke-dasharray: none;"/></g><path fill="rgb(33,113,181)" stroke-width="1" d="M 176.897,260.000 A 146.571,146.571 0 0,1 196.534,186.714 L 215.339,197.571 A 124.857,124.857 0 0,0 198.612,260.000 z" fill-opacity="1" style="box-sizing: inherit; stroke: rgb(119, 119, 119); stroke-width: 1px; stroke-opacity: 0; stroke-dasharray: none;"/></g><path fill="rgb(8,48,107)" stroke-width="1" d="M 198.612,260.000 A 124.857,124.857 0 0,1 215.339,197.571 L 234.144,208.429 A 103.143,103.143 0 0,0 220.326,260.000 z" fill-opacity="1" style="box-sizing: inherit; stroke: rgb(119, 119, 119); stroke-width: 1px; stroke-opacity: 0; stroke-dasharray: none;"/></g><path fill="rgb(198,219,239)" stroke-width="1" d="M 220.326,260.000 A 103.143,103.143 0 0,1 234.144,208.429 L 252.950,219.286 A 81.429,81.429 0 0,0 242.040,260.000 z" fill-opacity="1" style="box-sizing: inherit; stroke: rgb(119, 119, 119); stroke-width: 1px; stroke-opacity: 0; stroke-dasharray: none;"/></g><path fill="rgb(247,251,255)" stroke-width="1" d="M 242.040,260.000 A 81.429,81.429 0 0,1 252.950,219.286 L 271.755,230.143 A 59.714,59.714 0 0,0 263.754,260.000 z" fill-opacity="1" style="box-sizing: inherit; stroke: rgb(119, 119, 119); stroke-width: 1px; stroke-opacity: 0; stroke-dasharray: none;"/></g><path fill="rgb(247,251,255)" stroke-width="1" d="M 263.754,260.000 A 59.714,59.714 0 0,1 271.755,230.143 L 290.560,241.000 A 38.000,38.000 0 0,0 285.469,260.000 z" fill-opacity="1" style="box-sizing: inherit; stroke: rgb(119, 119, 119); stroke-width: 1px; stroke-opacity: 0; stroke-dasharray: none;"/></g><g class="wj-slice slice-level1" style="box-sizing: inherit;"><g class="wj-slice slice-level2" style="box-sizing: inherit;"><g class="wj-slice slice-level3" style="box-sizing: inherit;"><g class="wj-slice slice-level4" style="box-sizing: inherit;"><g class="wj-slice slice-level5" style="box-sizing: inherit;"><g class="wj-slice slice-level6" style="box-sizing: inherit;"><g class="wj-slice slice-level7" style="box-sizing: inherit;"><path fill="rgb(192,192,192)" stroke-width="1" d="M 158.924,165.000 A 190.000,190.000 0 0,1 228.469,95.455 L 239.326,114.260 A 168.286,168.286 0 0,0 177.729,175.857 z" fill-opacity="1" style="box-sizing: inherit; stroke: rgb(119, 119, 119); stroke-width: 1px; stroke-opacity: 0; stroke-dasharray: none;"/></g><path fill="rgb(107,174,214)" stroke-width="1" d="M 177.729,175.857 A 168.286,168.286 0 0,1 239.326,114.260 L 250.183,133.065 A 146.571,146.571 0 0,0 196.534,186.714 z" fill-opacity="1" style="box-sizing: inherit; stroke: rgb(119, 119, 119); stroke-width: 1px; stroke-opacity: 0; stroke-dasharray: none;"/></g><path fill="rgb(33,113,181)" stroke-width="1" d="M 196.534,186.714 A 146.571,146.571 0 0,1 250.183,133.065 L 261.040,151.871 A 124.857,124.857 0 0,0 215.339,197.571 z" fill-opacity="1" style="box-sizing: inherit; stroke: rgb(119, 119, 119); stroke-width: 1px; stroke-opacity: 0; stroke-dasharray: none;"/></g><path fill="rgb(8,48,107)" stroke-width="1" d="M 215.339,197.571 A 124.857,124.857 0 0,1 261.040,151.871 L 271.897,170.676 A 103.143,103.143 0 0,0 234.144,208.429 z" fill-opacity="1" style="box-sizing: inherit; stroke: rgb(119, 119, 119); stroke-width: 1px; stroke-opacity: 0; stroke-dasharray: none;"/></g><path fill="rgb(198,219,239)" stroke-width="1" d="M 234.144,208.429 A 103.143,103.143 0 0,1 271.897,170.676 L 282.754,189.481 A 81.429,81.429 0 0,0 252.950,219.286 z" fill-opacity="1" style="box-sizing: inherit; stroke: rgb(119, 119, 119); stroke-width: 1px; stroke-opacity: 0; stroke-dasharray: none;"/></g><path fill="rgb(247,251,255)" stroke-width="1" d="M 252.950,219.286 A 81.429,81.429 0 0,1 282.754,189.481 L 293.612,208.286 A 59.714,59.714 0 0,0 271.755,230.143 z" fill-opacity="1" style="box-sizing: inherit; stroke: rgb(119, 119, 119); stroke-width: 1px; stroke-opacity: 0; stroke-dasharray: none;"/></g><path fill="rgb(247,251,255)" stroke-width="1" d="M 271.755,230.143 A 59.714,59.714 0 0,1 293.612,208.286 L 304.469,227.091 A 38.000,38.000 0 0,0 290.560,241.000 z" fill-opacity="1" style="box-sizing: inherit; stroke: rgb(119, 119, 119); stroke-width: 1px; stroke-opacity: 0; stroke-dasharray: none;"/></g><g class="wj-slice slice-level1" style="box-sizing: inherit;"><g class="wj-slice slice-level2" style="box-sizing: inherit;"><g class="wj-slice slice-level3" style="box-sizing: inherit;"><g class="wj-slice slice-level4" style="box-sizing: inherit;"><g class="wj-slice slice-level5" style="box-sizing: inherit;"><g class="wj-slice slice-level6" style="box-sizing: inherit;"><g class="wj-slice slice-level7" style="box-sizing: inherit;"><path fill="rgb(192,192,192)" stroke-width="1" d="M 228.469,95.455 A 190.000,190.000 0 0,1 323.469,70.000 L 323.469,91.714 A 168.286,168.286 0 0,0 239.326,114.260 z" fill-opacity="1" style="box-sizing: inherit; stroke: rgb(119, 119, 119); stroke-width: 1px; stroke-opacity: 0; stroke-dasharray: none;"/></g><path fill="rgb(107,174,214)" stroke-width="1" d="M 239.326,114.260 A 168.286,168.286 0 0,1 323.469,91.714 L 323.469,113.429 A 146.571,146.571 0 0,0 250.183,133.065 z" fill-opacity="1" style="box-sizing: inherit; stroke: rgb(119, 119, 119); stroke-width: 1px; stroke-opacity: 0; stroke-dasharray: none;"/></g><path fill="rgb(33,113,181)" stroke-width="1" d="M 250.183,133.065 A 146.571,146.571 0 0,1 323.469,113.429 L 323.469,135.143 A 124.857,124.857 0 0,0 261.040,151.871 z" fill-opacity="1" style="box-sizing: inherit; stroke: rgb(119, 119, 119); stroke-width: 1px; stroke-opacity: 0; stroke-dasharray: none;"/></g><path fill="rgb(33,113,181)" stroke-width="1" d="M 261.040,151.871 A 124.857,124.857 0 0,1 323.469,135.143 L 323.469,156.857 A 103.143,103.143 0 0,0 271.897,170.676 z" fill-opacity="1" style="box-sizing: inherit; stroke: rgb(119, 119, 119); stroke-width: 1px; stroke-opacity: 0; stroke-dasharray: none;"/></g><path fill="rgb(198,219,239)" stroke-width="1" d="M 271.897,170.676 A 103.143,103.143 0 0,1 323.469,156.857 L 323.469,178.571 A 81.429,81.429 0 0,0 282.754,189.481 z" fill-opacity="1" style="box-sizing: inherit; stroke: rgb(119, 119, 119); stroke-width: 1px; stroke-opacity: 0; stroke-dasharray: none;"/></g><path fill="rgb(247,251,255)" stroke-width="1" d="M 282.754,189.481 A 81.429,81.429 0 0,1 323.469,178.571 L 323.469,200.286 A 59.714,59.714 0 0,0 293.612,208.286 z" fill-opacity="1" style="box-sizing: inherit; stroke: rgb(119, 119, 119); stroke-width: 1px; stroke-opacity: 0; stroke-dasharray: none;"/></g><path fill="rgb(247,251,255)" stroke-width="1" d="M 293.612,208.286 A 59.714,59.714 0 0,1 323.469,200.286 L 323.469,222.000 A 38.000,38.000 0 0,0 304.469,227.091 z" fill-opacity="1" style="box-sizing: inherit; stroke: rgb(119, 119, 119); stroke-width: 1px; stroke-opacity: 0; stroke-dasharray: none;"/></g></g><g class="wj-data-labels" style="box-sizing: inherit;"><text x="325.5" y="80.5" class="wj-data-label esri-ring" fill="rgb(68,68,68)" fill-opacity="1" display="block" style="box-sizing: inherit; cursor: default; font-size: 9pt; font-family: &apos;Segoe UI&apos;; font-style: normal; font-weight: normal; display: block; fill: rgb(68, 68, 68); fill-opacity: 1;">2018</text><text x="375.2" y="62.8" class="wj-data-label esri-wedge" fill="rgb(68,68,68)" fill-opacity="1" display="block" style="box-sizing: inherit; cursor: default; font-size: 9pt; font-family: &apos;Segoe UI&apos;; font-style: normal; font-weight: normal; display: block; fill: rgb(68, 68, 68); fill-opacity: 1;">Jan</text><text x="325.5" y="102.2" class="wj-data-label esri-ring" fill="rgb(68,68,68)" fill-opacity="1" display="block" style="box-sizing: inherit; cursor: default; font-size: 9pt; font-family: &apos;Segoe UI&apos;; font-style: normal; font-weight: normal; display: block; fill: rgb(68, 68, 68); fill-opacity: 1;">2017</text><text x="325.5" y="124.0" class="wj-data-label esri-ring" fill="rgb(68,68,68)" fill-opacity="1" display="block" style="box-sizing: inherit; cursor: default; font-size: 9pt; font-family: &apos;Segoe UI&apos;; font-style: normal; font-weight: normal; display: block; fill: rgb(68, 68, 68); fill-opacity: 1;">2016</text><text x="325.5" y="145.7" class="wj-data-label esri-ring" fill="rgb(68,68,68)" fill-opacity="1" display="block" style="box-sizing: inherit; cursor: default; font-size: 9pt; font-family: &apos;Segoe UI&apos;; font-style: normal; font-weight: normal; display: block; fill: rgb(68, 68, 68); fill-opacity: 1;">2015</text><text x="325.5" y="167.3" class="wj-data-label esri-ring" fill="rgb(68,68,68)" fill-opacity="1" display="block" style="box-sizing: inherit; cursor: default; font-size: 9pt; font-family: &apos;Segoe UI&apos;; font-style: normal; font-weight: normal; display: block; fill: rgb(68, 68, 68); fill-opacity: 1;">2014</text><text x="325.5" y="189.0" class="wj-data-label esri-ring" fill="rgb(68,68,68)" fill-opacity="1" display="block" style="box-sizing: inherit; cursor: default; font-size: 9pt; font-family: &apos;Segoe UI&apos;; font-style: normal; font-weight: normal; display: block; fill: rgb(68, 68, 68); fill-opacity: 1;">2013</text><text x="325.5" y="210.8" class="wj-data-label esri-ring" fill="rgb(68,68,68)" fill-opacity="1" display="block" style="box-sizing: inherit; cursor: default; font-size: 9pt; font-family: &apos;Segoe UI&apos;; font-style: normal; font-weight: normal; display: block; fill: rgb(68, 68, 68); fill-opacity: 1;">2012</text><text x="464.9" y="114.6" class="wj-data-label esri-wedge" fill="rgb(68,68,68)" fill-opacity="1" display="block" style="box-sizing: inherit; cursor: default; font-size: 9pt; font-family: &apos;Segoe UI&apos;; font-style: normal; font-weight: normal; display: block; fill: rgb(68, 68, 68); fill-opacity: 1;">Feb</text><text x="516.7" y="204.3" class="wj-data-label esri-wedge" fill="rgb(68,68,68)" fill-opacity="1" display="block" style="box-sizing: inherit; cursor: default; font-size: 9pt; font-family: &apos;Segoe UI&apos;; font-style: normal; font-weight: normal; display: block; fill: rgb(68, 68, 68); fill-opacity: 1;">Mar</text><text x="516.7" y="326.7" class="wj-data-label esri-wedge" fill="rgb(68,68,68)" fill-opacity="1" display="block" style="box-sizing: inherit; cursor: default; font-size: 9pt; font-family: &apos;Segoe UI&apos;; font-style: normal; font-weight: normal; display: block; fill: rgb(68, 68, 68); fill-opacity: 1;">Apr</text><text x="464.9" y="416.4" class="wj-data-label esri-wedge" fill="rgb(68,68,68)" fill-opacity="1" display="block" style="box-sizing: inherit; cursor: default; font-size: 9pt; font-family: &apos;Segoe UI&apos;; font-style: normal; font-weight: normal; display: block; fill: rgb(68, 68, 68); fill-opacity: 1;">May</text><text x="375.2" y="468.2" class="wj-data-label esri-wedge" fill="rgb(68,68,68)" fill-opacity="1" display="block" style="box-sizing: inherit; cursor: default; font-size: 9pt; font-family: &apos;Segoe UI&apos;; font-style: normal; font-weight: normal; display: block; fill: rgb(68, 68, 68); fill-opacity: 1;">Jun</text><text x="253.5" y="468.2" class="wj-data-label esri-wedge" fill="rgb(68,68,68)" fill-opacity="1" display="block" style="box-sizing: inherit; cursor: default; font-size: 9pt; font-family: &apos;Segoe UI&apos;; font-style: normal; font-weight: normal; display: block; fill: rgb(68, 68, 68); fill-opacity: 1;">Jul</text><text x="156.4" y="416.4" class="wj-data-label esri-wedge" fill="rgb(68,68,68)" fill-opacity="1" display="block" style="box-sizing: inherit; cursor: default; font-size: 9pt; font-family: &apos;Segoe UI&apos;; font-style: normal; font-weight: normal; display: block; fill: rgb(68, 68, 68); fill-opacity: 1;">Aug</text><text x="106.6" y="326.7" class="wj-data-label esri-wedge" fill="rgb(68,68,68)" fill-opacity="1" display="block" style="box-sizing: inherit; cursor: default; font-size: 9pt; font-family: &apos;Segoe UI&apos;; font-style: normal; font-weight: normal; display: block; fill: rgb(68, 68, 68); fill-opacity: 1;">Sep</text><text x="106.9" y="204.3" class="wj-data-label esri-wedge" fill="rgb(68,68,68)" fill-opacity="1" display="block" style="box-sizing: inherit; cursor: default; font-size: 9pt; font-family: &apos;Segoe UI&apos;; font-style: normal; font-weight: normal; display: block; fill: rgb(68, 68, 68); fill-opacity: 1;">Oct</text><text x="155.4" y="114.6" class="wj-data-label esri-wedge" fill="rgb(68,68,68)" fill-opacity="1" display="block" style="box-sizing: inherit; cursor: default; font-size: 9pt; font-family: &apos;Segoe UI&apos;; font-style: normal; font-weight: normal; display: block; fill: rgb(68, 68, 68); fill-opacity: 1;">Nov</text><text x="246.9" y="62.8" class="wj-data-label esri-wedge" fill="rgb(68,68,68)" fill-opacity="1" display="block" style="box-sizing: inherit; cursor: default; font-size: 9pt; font-family: &apos;Segoe UI&apos;; font-style: normal; font-weight: normal; display: block; fill: rgb(68, 68, 68); fill-opacity: 1;">Dec</text></g></svg>