<svg xmlns="http://www.w3.org/2000/svg" width="750" height="500" style="box-sizing: inherit; font-family: Calibri;"><rect id="backgroundRect" width="100%" height="100%" x="0" y="0" fill="rgb(255,255,255)" fill-opacity="1" visibility="visible" style="box-sizing: inherit; fill: rgb(255, 255, 255); fill-opacity: 1; display: block;"/><defs style="box-sizing: inherit;"/><clipPath id="chartRect171035" style="box-sizing: inherit;"><rect x="-1.0" y="-1.0" width="747.0" height="494.0" style="box-sizing: inherit;"/></clipPath><g class="wj-header" style="box-sizing: inherit; background: rgb(238, 238, 238); color: rgb(68, 68, 68); font-weight: 700;" clip-path="url(#chartRect171035)"><text x="248.5" y="23.0" fill="rgb(68,68,68)" class="wj-title" fill-opacity="1" display="block" style="box-sizing: inherit; cursor: default; font-size: 16pt; font-family: &apos;Segoe UI&apos;; font-style: normal; font-weight: normal; display: block; fill: rgb(68, 68, 68); fill-opacity: 1;">Injection Rate (2010-2016)</text></g><g class="wj-footer" style="box-sizing: inherit;" clip-path="url(#chartRect171035)"/><clipPath id="legRect253859" style="box-sizing: inherit;"><rect x="670.4" y="184.0" width="75.6" height="152.0" style="box-sizing: inherit;"/></clipPath><g class="wj-legend" style="box-sizing: inherit;" clip-path="url(#legRect253859)"><rect fill="rgb(247,251,255)" stroke="rgb(247,251,255)" stroke-width="1" x="675.4" y="192.5" width="10.0" height="10.0" fill-opacity="1" stroke-opacity="1" style="box-sizing: inherit;"/><text x="689.4" y="203.5" class="wj-label" fill="rgb(68,68,68)" fill-opacity="1" display="block" style="box-sizing: inherit; cursor: default; font-size: 10pt; font-family: &apos;Segoe UI&apos;; font-style: normal; font-weight: normal; display: block; fill: rgb(68, 68, 68); fill-opacity: 1;"> ≤ 2,681</text><rect fill="rgb(198,219,239)" stroke="rgb(198,219,239)" stroke-width="1" x="675.4" y="217.5" width="10.0" height="10.0" fill-opacity="1" stroke-opacity="1" style="box-sizing: inherit;"/><text x="689.4" y="228.5" class="wj-label" fill="rgb(68,68,68)" fill-opacity="1" display="block" style="box-sizing: inherit; cursor: default; font-size: 10pt; font-family: &apos;Segoe UI&apos;; font-style: normal; font-weight: normal; display: block; fill: rgb(68, 68, 68); fill-opacity: 1;"> ≤ 7,770</text><rect fill="rgb(107,174,214)" stroke="rgb(107,174,214)" stroke-width="1" x="675.4" y="242.5" width="10.0" height="10.0" fill-opacity="1" stroke-opacity="1" style="box-sizing: inherit;"/><text x="689.4" y="253.5" class="wj-label" fill="rgb(68,68,68)" fill-opacity="1" display="block" style="box-sizing: inherit; cursor: default; font-size: 10pt; font-family: &apos;Segoe UI&apos;; font-style: normal; font-weight: normal; display: block; fill: rgb(68, 68, 68); fill-opacity: 1;"> ≤ 16,367</text><rect fill="rgb(33,113,181)" stroke="rgb(33,113,181)" stroke-width="1" x="675.4" y="267.5" width="10.0" height="10.0" fill-opacity="1" stroke-opacity="1" style="box-sizing: inherit;"/><text x="689.4" y="278.5" class="wj-label" fill="rgb(68,68,68)" fill-opacity="1" display="block" style="box-sizing: inherit; cursor: default; font-size: 10pt; font-family: &apos;Segoe UI&apos;; font-style: normal; font-weight: normal; display: block; fill: rgb(68, 68, 68); fill-opacity: 1;"> ≤ 19,424</text><rect fill="rgb(8,48,107)" stroke="rgb(8,48,107)" stroke-width="1" x="675.4" y="292.5" width="10.0" height="10.0" fill-opacity="1" stroke-opacity="1" style="box-sizing: inherit;"/><text x="689.4" y="303.5" class="wj-label" fill="rgb(68,68,68)" fill-opacity="1" display="block" style="box-sizing: inherit; cursor: default; font-size: 10pt; font-family: &apos;Segoe UI&apos;; font-style: normal; font-weight: normal; display: block; fill: rgb(68, 68, 68); fill-opacity: 1;"> ≤ 21,153</text><rect fill="rgb(192,192,192)" stroke="rgb(192,192,192)" stroke-width="1" x="675.4" y="317.5" width="10.0" height="10.0" fill-opacity="1" stroke-opacity="1" style="box-sizing: inherit;"/><text x="689.4" y="328.5" class="wj-label" fill="rgb(68,68,68)" fill-opacity="1" display="block" style="box-sizing: inherit; cursor: default; font-size: 10pt; font-family: &apos;Segoe UI&apos;; font-style: normal; font-weight: normal; display: block; fill: rgb(68, 68, 68); fill-opacity: 1;">Null</text></g><g class="wj-slice-group" transform="matrix(1 0 0 1 0 0)" style="box-sizing: inherit;"><g class="wj-slice slice-level1" style="box-sizing: inherit;"><g class="wj-slice slice-level2" style="box-sizing: inherit;"><g class="wj-slice slice-level3" style="box-sizing: inherit;"><g class="wj-slice slice-level4" style="box-sizing: inherit;"><g class="wj-slice slice-level5" style="box-sizing: inherit;"><g class="wj-slice slice-level6" style="box-sizing: inherit;"><g class="wj-slice slice-level7" style="box-sizing: inherit;"><path fill="rgb(33,113,181)" stroke-width="1" d="M 335.695,70.000 A 190.000,190.000 0 0,1 430.695,95.455 L 419.838,114.260 A 168.286,168.286 0 0,0 335.695,91.714 z" fill-opacity="1" style="box-sizing: inherit; stroke: rgb(119, 119, 119); stroke-width: 1px; stroke-opacity: 0; stroke-dasharray: none;"/></g><path fill="rgb(8,48,107)" stroke-width="1" d="M 335.695,91.714 A 168.286,168.286 0 0,1 419.838,114.260 L 408.981,133.065 A 146.571,146.571 0 0,0 335.695,113.429 z" fill-opacity="1" style="box-sizing: inherit; stroke: rgb(119, 119, 119); stroke-width: 1px; stroke-opacity: 0; stroke-dasharray: none;"/></g><path fill="rgb(33,113,181)" stroke-width="1" d="M 335.695,113.429 A 146.571,146.571 0 0,1 408.981,133.065 L 398.124,151.871 A 124.857,124.857 0 0,0 335.695,135.143 z" fill-opacity="1" style="box-sizing: inherit; stroke: rgb(119, 119, 119); stroke-width: 1px; stroke-opacity: 0; stroke-dasharray: none;"/></g><path fill="rgb(107,174,214)" stroke-width="1" d="M 335.695,135.143 A 124.857,124.857 0 0,1 398.124,151.871 L 387.267,170.676 A 103.143,103.143 0 0,0 335.695,156.857 z" fill-opacity="1" style="box-sizing: inherit; stroke: rgb(119, 119, 119); stroke-width: 1px; stroke-opacity: 0; stroke-dasharray: none;"/></g><path fill="rgb(247,251,255)" stroke-width="1" d="M 335.695,156.857 A 103.143,103.143 0 0,1 387.267,170.676 L 376.410,189.481 A 81.429,81.429 0 0,0 335.695,178.571 z" fill-opacity="1" style="box-sizing: inherit; stroke: rgb(119, 119, 119); stroke-width: 1px; stroke-opacity: 0; stroke-dasharray: none;"/></g><path fill="rgb(247,251,255)" stroke-width="1" d="M 335.695,178.571 A 81.429,81.429 0 0,1 376.410,189.481 L 365.552,208.286 A 59.714,59.714 0 0,0 335.695,200.286 z" fill-opacity="1" style="box-sizing: inherit; stroke: rgb(119, 119, 119); stroke-width: 1px; stroke-opacity: 0; stroke-dasharray: none;"/></g><path fill="rgb(192,192,192)" stroke-width="1" d="M 335.695,200.286 A 59.714,59.714 0 0,1 365.552,208.286 L 354.695,227.091 A 38.000,38.000 0 0,0 335.695,222.000 z" fill-opacity="1" style="box-sizing: inherit; stroke: rgb(119, 119, 119); stroke-width: 1px; stroke-opacity: 0; stroke-dasharray: none;"/></g><g class="wj-slice slice-level1" style="box-sizing: inherit;"><g class="wj-slice slice-level2" style="box-sizing: inherit;"><g class="wj-slice slice-level3" style="box-sizing: inherit;"><g class="wj-slice slice-level4" style="box-sizing: inherit;"><g class="wj-slice slice-level5" style="box-sizing: inherit;"><g class="wj-slice slice-level6" style="box-sizing: inherit;"><g class="wj-slice slice-level7" style="box-sizing: inherit;"><path fill="rgb(33,113,181)" stroke-width="1" d="M 430.695,95.455 A 190.000,190.000 0 0,1 500.240,165.000 L 481.435,175.857 A 168.286,168.286 0 0,0 419.838,114.260 z" fill-opacity="1" style="box-sizing: inherit; stroke: rgb(119, 119, 119); stroke-width: 1px; stroke-opacity: 0; stroke-dasharray: none;"/></g><path fill="rgb(33,113,181)" stroke-width="1" d="M 419.838,114.260 A 168.286,168.286 0 0,1 481.435,175.857 L 462.630,186.714 A 146.571,146.571 0 0,0 408.981,133.065 z" fill-opacity="1" style="box-sizing: inherit; stroke: rgb(119, 119, 119); stroke-width: 1px; stroke-opacity: 0; stroke-dasharray: none;"/></g><path fill="rgb(33,113,181)" stroke-width="1" d="M 408.981,133.065 A 146.571,146.571 0 0,1 462.630,186.714 L 443.825,197.571 A 124.857,124.857 0 0,0 398.124,151.871 z" fill-opacity="1" style="box-sizing: inherit; stroke: rgb(119, 119, 119); stroke-width: 1px; stroke-opacity: 0; stroke-dasharray: none;"/></g><path fill="rgb(107,174,214)" stroke-width="1" d="M 398.124,151.871 A 124.857,124.857 0 0,1 443.825,197.571 L 425.020,208.429 A 103.143,103.143 0 0,0 387.267,170.676 z" fill-opacity="1" style="box-sizing: inherit; stroke: rgb(119, 119, 119); stroke-width: 1px; stroke-opacity: 0; stroke-dasharray: none;"/></g><path fill="rgb(247,251,255)" stroke-width="1" d="M 387.267,170.676 A 103.143,103.143 0 0,1 425.020,208.429 L 406.215,219.286 A 81.429,81.429 0 0,0 376.410,189.481 z" fill-opacity="1" style="box-sizing: inherit; stroke: rgb(119, 119, 119); stroke-width: 1px; stroke-opacity: 0; stroke-dasharray: none;"/></g><path fill="rgb(247,251,255)" stroke-width="1" d="M 376.410,189.481 A 81.429,81.429 0 0,1 406.215,219.286 L 387.409,230.143 A 59.714,59.714 0 0,0 365.552,208.286 z" fill-opacity="1" style="box-sizing: inherit; stroke: rgb(119, 119, 119); stroke-width: 1px; stroke-opacity: 0; stroke-dasharray: none;"/></g><path fill="rgb(192,192,192)" stroke-width="1" d="M 365.552,208.286 A 59.714,59.714 0 0,1 387.409,230.143 L 368.604,241.000 A 38.000,38.000 0 0,0 354.695,227.091 z" fill-opacity="1" style="box-sizing: inherit; stroke: rgb(119, 119, 119); stroke-width: 1px; stroke-opacity: 0; stroke-dasharray: none;"/></g><g class="wj-slice slice-level1" style="box-sizing: inherit;"><g class="wj-slice slice-level2" style="box-sizing: inherit;"><g class="wj-slice slice-level3" style="box-sizing: inherit;"><g class="wj-slice slice-level4" style="box-sizing: inherit;"><g class="wj-slice slice-level5" style="box-sizing: inherit;"><g class="wj-slice slice-level6" style="box-sizing: inherit;"><g class="wj-slice slice-level7" style="box-sizing: inherit;"><path fill="rgb(33,113,181)" stroke-width="1" d="M 500.240,165.000 A 190.000,190.000 0 0,1 525.695,260.000 L 503.981,260.000 A 168.286,168.286 0 0,0 481.435,175.857 z" fill-opacity="1" style="box-sizing: inherit; stroke: rgb(119, 119, 119); stroke-width: 1px; stroke-opacity: 0; stroke-dasharray: none;"/></g><path fill="rgb(8,48,107)" stroke-width="1" d="M 481.435,175.857 A 168.286,168.286 0 0,1 503.981,260.000 L 482.267,260.000 A 146.571,146.571 0 0,0 462.630,186.714 z" fill-opacity="1" style="box-sizing: inherit; stroke: rgb(119, 119, 119); stroke-width: 1px; stroke-opacity: 0; stroke-dasharray: none;"/></g><path fill="rgb(33,113,181)" stroke-width="1" d="M 462.630,186.714 A 146.571,146.571 0 0,1 482.267,260.000 L 460.552,260.000 A 124.857,124.857 0 0,0 443.825,197.571 z" fill-opacity="1" style="box-sizing: inherit; stroke: rgb(119, 119, 119); stroke-width: 1px; stroke-opacity: 0; stroke-dasharray: none;"/></g><path fill="rgb(107,174,214)" stroke-width="1" d="M 443.825,197.571 A 124.857,124.857 0 0,1 460.552,260.000 L 438.838,260.000 A 103.143,103.143 0 0,0 425.020,208.429 z" fill-opacity="1" style="box-sizing: inherit; stroke: rgb(119, 119, 119); stroke-width: 1px; stroke-opacity: 0; stroke-dasharray: none;"/></g><path fill="rgb(247,251,255)" stroke-width="1" d="M 425.020,208.429 A 103.143,103.143 0 0,1 438.838,260.000 L 417.124,260.000 A 81.429,81.429 0 0,0 406.215,219.286 z" fill-opacity="1" style="box-sizing: inherit; stroke: rgb(119, 119, 119); stroke-width: 1px; stroke-opacity: 0; stroke-dasharray: none;"/></g><path fill="rgb(247,251,255)" stroke-width="1" d="M 406.215,219.286 A 81.429,81.429 0 0,1 417.124,260.000 L 395.410,260.000 A 59.714,59.714 0 0,0 387.409,230.143 z" fill-opacity="1" style="box-sizing: inherit; stroke: rgb(119, 119, 119); stroke-width: 1px; stroke-opacity: 0; stroke-dasharray: none;"/></g><path fill="rgb(192,192,192)" stroke-width="1" d="M 387.409,230.143 A 59.714,59.714 0 0,1 395.410,260.000 L 373.695,260.000 A 38.000,38.000 0 0,0 368.604,241.000 z" fill-opacity="1" style="box-sizing: inherit; stroke: rgb(119, 119, 119); stroke-width: 1px; stroke-opacity: 0; stroke-dasharray: none;"/></g><g class="wj-slice slice-level1" style="box-sizing: inherit;"><g class="wj-slice slice-level2" style="box-sizing: inherit;"><g class="wj-slice slice-level3" style="box-sizing: inherit;"><g class="wj-slice slice-level4" style="box-sizing: inherit;"><g class="wj-slice slice-level5" style="box-sizing: inherit;"><g class="wj-slice slice-level6" style="box-sizing: inherit;"><g class="wj-slice slice-level7" style="box-sizing: inherit;"><path fill="rgb(33,113,181)" stroke-width="1" d="M 525.695,260.000 A 190.000,190.000 0 0,1 500.240,355.000 L 481.435,344.143 A 168.286,168.286 0 0,0 503.981,260.000 z" fill-opacity="1" style="box-sizing: inherit; stroke: rgb(119, 119, 119); stroke-width: 1px; stroke-opacity: 0; stroke-dasharray: none;"/></g><path fill="rgb(33,113,181)" stroke-width="1" d="M 503.981,260.000 A 168.286,168.286 0 0,1 481.435,344.143 L 462.630,333.286 A 146.571,146.571 0 0,0 482.267,260.000 z" fill-opacity="1" style="box-sizing: inherit; stroke: rgb(119, 119, 119); stroke-width: 1px; stroke-opacity: 0; stroke-dasharray: none;"/></g><path fill="rgb(8,48,107)" stroke-width="1" d="M 482.267,260.000 A 146.571,146.571 0 0,1 462.630,333.286 L 443.825,322.429 A 124.857,124.857 0 0,0 460.552,260.000 z" fill-opacity="1" style="box-sizing: inherit; stroke: rgb(119, 119, 119); stroke-width: 1px; stroke-opacity: 0; stroke-dasharray: none;"/></g><path fill="rgb(107,174,214)" stroke-width="1" d="M 460.552,260.000 A 124.857,124.857 0 0,1 443.825,322.429 L 425.020,311.571 A 103.143,103.143 0 0,0 438.838,260.000 z" fill-opacity="1" style="box-sizing: inherit; stroke: rgb(119, 119, 119); stroke-width: 1px; stroke-opacity: 0; stroke-dasharray: none;"/></g><path fill="rgb(247,251,255)" stroke-width="1" d="M 438.838,260.000 A 103.143,103.143 0 0,1 425.020,311.571 L 406.215,300.714 A 81.429,81.429 0 0,0 417.124,260.000 z" fill-opacity="1" style="box-sizing: inherit; stroke: rgb(119, 119, 119); stroke-width: 1px; stroke-opacity: 0; stroke-dasharray: none;"/></g><path fill="rgb(247,251,255)" stroke-width="1" d="M 417.124,260.000 A 81.429,81.429 0 0,1 406.215,300.714 L 387.409,289.857 A 59.714,59.714 0 0,0 395.410,260.000 z" fill-opacity="1" style="box-sizing: inherit; stroke: rgb(119, 119, 119); stroke-width: 1px; stroke-opacity: 0; stroke-dasharray: none;"/></g><path fill="rgb(192,192,192)" stroke-width="1" d="M 395.410,260.000 A 59.714,59.714 0 0,1 387.409,289.857 L 368.604,279.000 A 38.000,38.000 0 0,0 373.695,260.000 z" fill-opacity="1" style="box-sizing: inherit; stroke: rgb(119, 119, 119); stroke-width: 1px; stroke-opacity: 0; stroke-dasharray: none;"/></g><g class="wj-slice slice-level1" style="box-sizing: inherit;"><g class="wj-slice slice-level2" style="box-sizing: inherit;"><g class="wj-slice slice-level3" style="box-sizing: inherit;"><g class="wj-slice slice-level4" style="box-sizing: inherit;"><g class="wj-slice slice-level5" style="box-sizing: inherit;"><g class="wj-slice slice-level6" style="box-sizing: inherit;"><g class="wj-slice slice-level7" style="box-sizing: inherit;"><path fill="rgb(33,113,181)" stroke-width="1" d="M 500.240,355.000 A 190.000,190.000 0 0,1 430.695,424.545 L 419.838,405.740 A 168.286,168.286 0 0,0 481.435,344.143 z" fill-opacity="1" style="box-sizing: inherit; stroke: rgb(119, 119, 119); stroke-width: 1px; stroke-opacity: 0; stroke-dasharray: none;"/></g><path fill="rgb(8,48,107)" stroke-width="1" d="M 481.435,344.143 A 168.286,168.286 0 0,1 419.838,405.740 L 408.981,386.935 A 146.571,146.571 0 0,0 462.630,333.286 z" fill-opacity="1" style="box-sizing: inherit; stroke: rgb(119, 119, 119); stroke-width: 1px; stroke-opacity: 0; stroke-dasharray: none;"/></g><path fill="rgb(8,48,107)" stroke-width="1" d="M 462.630,333.286 A 146.571,146.571 0 0,1 408.981,386.935 L 398.124,368.129 A 124.857,124.857 0 0,0 443.825,322.429 z" fill-opacity="1" style="box-sizing: inherit; stroke: rgb(119, 119, 119); stroke-width: 1px; stroke-opacity: 0; stroke-dasharray: none;"/></g><path fill="rgb(107,174,214)" stroke-width="1" d="M 443.825,322.429 A 124.857,124.857 0 0,1 398.124,368.129 L 387.267,349.324 A 103.143,103.143 0 0,0 425.020,311.571 z" fill-opacity="1" style="box-sizing: inherit; stroke: rgb(119, 119, 119); stroke-width: 1px; stroke-opacity: 0; stroke-dasharray: none;"/></g><path fill="rgb(247,251,255)" stroke-width="1" d="M 425.020,311.571 A 103.143,103.143 0 0,1 387.267,349.324 L 376.410,330.519 A 81.429,81.429 0 0,0 406.215,300.714 z" fill-opacity="1" style="box-sizing: inherit; stroke: rgb(119, 119, 119); stroke-width: 1px; stroke-opacity: 0; stroke-dasharray: none;"/></g><path fill="rgb(247,251,255)" stroke-width="1" d="M 406.215,300.714 A 81.429,81.429 0 0,1 376.410,330.519 L 365.552,311.714 A 59.714,59.714 0 0,0 387.409,289.857 z" fill-opacity="1" style="box-sizing: inherit; stroke: rgb(119, 119, 119); stroke-width: 1px; stroke-opacity: 0; stroke-dasharray: none;"/></g><path fill="rgb(192,192,192)" stroke-width="1" d="M 387.409,289.857 A 59.714,59.714 0 0,1 365.552,311.714 L 354.695,292.909 A 38.000,38.000 0 0,0 368.604,279.000 z" fill-opacity="1" style="box-sizing: inherit; stroke: rgb(119, 119, 119); stroke-width: 1px; stroke-opacity: 0; stroke-dasharray: none;"/></g><g class="wj-slice slice-level1" style="box-sizing: inherit;"><g class="wj-slice slice-level2" style="box-sizing: inherit;"><g class="wj-slice slice-level3" style="box-sizing: inherit;"><g class="wj-slice slice-level4" style="box-sizing: inherit;"><g class="wj-slice slice-level5" style="box-sizing: inherit;"><g class="wj-slice slice-level6" style="box-sizing: inherit;"><g class="wj-slice slice-level7" style="box-sizing: inherit;"><path fill="rgb(33,113,181)" stroke-width="1" d="M 430.695,424.545 A 190.000,190.000 0 0,1 335.695,450.000 L 335.695,428.286 A 168.286,168.286 0 0,0 419.838,405.740 z" fill-opacity="1" style="box-sizing: inherit; stroke: rgb(119, 119, 119); stroke-width: 1px; stroke-opacity: 0; stroke-dasharray: none;"/></g><path fill="rgb(33,113,181)" stroke-width="1" d="M 419.838,405.740 A 168.286,168.286 0 0,1 335.695,428.286 L 335.695,406.571 A 146.571,146.571 0 0,0 408.981,386.935 z" fill-opacity="1" style="box-sizing: inherit; stroke: rgb(119, 119, 119); stroke-width: 1px; stroke-opacity: 0; stroke-dasharray: none;"/></g><path fill="rgb(8,48,107)" stroke-width="1" d="M 408.981,386.935 A 146.571,146.571 0 0,1 335.695,406.571 L 335.695,384.857 A 124.857,124.857 0 0,0 398.124,368.129 z" fill-opacity="1" style="box-sizing: inherit; stroke: rgb(119, 119, 119); stroke-width: 1px; stroke-opacity: 0; stroke-dasharray: none;"/></g><path fill="rgb(107,174,214)" stroke-width="1" d="M 398.124,368.129 A 124.857,124.857 0 0,1 335.695,384.857 L 335.695,363.143 A 103.143,103.143 0 0,0 387.267,349.324 z" fill-opacity="1" style="box-sizing: inherit; stroke: rgb(119, 119, 119); stroke-width: 1px; stroke-opacity: 0; stroke-dasharray: none;"/></g><path fill="rgb(247,251,255)" stroke-width="1" d="M 387.267,349.324 A 103.143,103.143 0 0,1 335.695,363.143 L 335.695,341.429 A 81.429,81.429 0 0,0 376.410,330.519 z" fill-opacity="1" style="box-sizing: inherit; stroke: rgb(119, 119, 119); stroke-width: 1px; stroke-opacity: 0; stroke-dasharray: none;"/></g><path fill="rgb(247,251,255)" stroke-width="1" d="M 376.410,330.519 A 81.429,81.429 0 0,1 335.695,341.429 L 335.695,319.714 A 59.714,59.714 0 0,0 365.552,311.714 z" fill-opacity="1" style="box-sizing: inherit; stroke: rgb(119, 119, 119); stroke-width: 1px; stroke-opacity: 0; stroke-dasharray: none;"/></g><path fill="rgb(192,192,192)" stroke-width="1" d="M 365.552,311.714 A 59.714,59.714 0 0,1 335.695,319.714 L 335.695,298.000 A 38.000,38.000 0 0,0 354.695,292.909 z" fill-opacity="1" style="box-sizing: inherit; stroke: rgb(119, 119, 119); stroke-width: 1px; stroke-opacity: 0; stroke-dasharray: none;"/></g><g class="wj-slice slice-level1" style="box-sizing: inherit;"><g class="wj-slice slice-level2" style="box-sizing: inherit;"><g class="wj-slice slice-level3" style="box-sizing: inherit;"><g class="wj-slice slice-level4" style="box-sizing: inherit;"><g class="wj-slice slice-level5" style="box-sizing: inherit;"><g class="wj-slice slice-level6" style="box-sizing: inherit;"><g class="wj-slice slice-level7" style="box-sizing: inherit;"><path fill="rgb(198,219,239)" stroke-width="1" d="M 335.695,450.000 A 190.000,190.000 0 0,1 240.695,424.545 L 251.552,405.740 A 168.286,168.286 0 0,0 335.695,428.286 z" fill-opacity="1" style="box-sizing: inherit; stroke: rgb(119, 119, 119); stroke-width: 1px; stroke-opacity: 0; stroke-dasharray: none;"/></g><path fill="rgb(8,48,107)" stroke-width="1" d="M 335.695,428.286 A 168.286,168.286 0 0,1 251.552,405.740 L 262.410,386.935 A 146.571,146.571 0 0,0 335.695,406.571 z" fill-opacity="1" style="box-sizing: inherit; stroke: rgb(119, 119, 119); stroke-width: 1px; stroke-opacity: 0; stroke-dasharray: none;"/></g><path fill="rgb(8,48,107)" stroke-width="1" d="M 335.695,406.571 A 146.571,146.571 0 0,1 262.410,386.935 L 273.267,368.129 A 124.857,124.857 0 0,0 335.695,384.857 z" fill-opacity="1" style="box-sizing: inherit; stroke: rgb(119, 119, 119); stroke-width: 1px; stroke-opacity: 0; stroke-dasharray: none;"/></g><path fill="rgb(107,174,214)" stroke-width="1" d="M 335.695,384.857 A 124.857,124.857 0 0,1 273.267,368.129 L 284.124,349.324 A 103.143,103.143 0 0,0 335.695,363.143 z" fill-opacity="1" style="box-sizing: inherit; stroke: rgb(119, 119, 119); stroke-width: 1px; stroke-opacity: 0; stroke-dasharray: none;"/></g><path fill="rgb(247,251,255)" stroke-width="1" d="M 335.695,363.143 A 103.143,103.143 0 0,1 284.124,349.324 L 294.981,330.519 A 81.429,81.429 0 0,0 335.695,341.429 z" fill-opacity="1" style="box-sizing: inherit; stroke: rgb(119, 119, 119); stroke-width: 1px; stroke-opacity: 0; stroke-dasharray: none;"/></g><path fill="rgb(247,251,255)" stroke-width="1" d="M 335.695,341.429 A 81.429,81.429 0 0,1 294.981,330.519 L 305.838,311.714 A 59.714,59.714 0 0,0 335.695,319.714 z" fill-opacity="1" style="box-sizing: inherit; stroke: rgb(119, 119, 119); stroke-width: 1px; stroke-opacity: 0; stroke-dasharray: none;"/></g><path fill="rgb(192,192,192)" stroke-width="1" d="M 335.695,319.714 A 59.714,59.714 0 0,1 305.838,311.714 L 316.695,292.909 A 38.000,38.000 0 0,0 335.695,298.000 z" fill-opacity="1" style="box-sizing: inherit; stroke: rgb(119, 119, 119); stroke-width: 1px; stroke-opacity: 0; stroke-dasharray: none;"/></g><g class="wj-slice slice-level1" style="box-sizing: inherit;"><g class="wj-slice slice-level2" style="box-sizing: inherit;"><g class="wj-slice slice-level3" style="box-sizing: inherit;"><g class="wj-slice slice-level4" style="box-sizing: inherit;"><g class="wj-slice slice-level5" style="box-sizing: inherit;"><g class="wj-slice slice-level6" style="box-sizing: inherit;"><g class="wj-slice slice-level7" style="box-sizing: inherit;"><path fill="rgb(192,192,192)" stroke-width="1" d="M 240.695,424.545 A 190.000,190.000 0 0,1 171.150,355.000 L 189.956,344.143 A 168.286,168.286 0 0,0 251.552,405.740 z" fill-opacity="1" style="box-sizing: inherit; stroke: rgb(119, 119, 119); stroke-width: 1px; stroke-opacity: 0; stroke-dasharray: none;"/></g><path fill="rgb(8,48,107)" stroke-width="1" d="M 251.552,405.740 A 168.286,168.286 0 0,1 189.956,344.143 L 208.761,333.286 A 146.571,146.571 0 0,0 262.410,386.935 z" fill-opacity="1" style="box-sizing: inherit; stroke: rgb(119, 119, 119); stroke-width: 1px; stroke-opacity: 0; stroke-dasharray: none;"/></g><path fill="rgb(8,48,107)" stroke-width="1" d="M 262.410,386.935 A 146.571,146.571 0 0,1 208.761,333.286 L 227.566,322.429 A 124.857,124.857 0 0,0 273.267,368.129 z" fill-opacity="1" style="box-sizing: inherit; stroke: rgb(119, 119, 119); stroke-width: 1px; stroke-opacity: 0; stroke-dasharray: none;"/></g><path fill="rgb(107,174,214)" stroke-width="1" d="M 273.267,368.129 A 124.857,124.857 0 0,1 227.566,322.429 L 246.371,311.571 A 103.143,103.143 0 0,0 284.124,349.324 z" fill-opacity="1" style="box-sizing: inherit; stroke: rgb(119, 119, 119); stroke-width: 1px; stroke-opacity: 0; stroke-dasharray: none;"/></g><path fill="rgb(247,251,255)" stroke-width="1" d="M 284.124,349.324 A 103.143,103.143 0 0,1 246.371,311.571 L 265.176,300.714 A 81.429,81.429 0 0,0 294.981,330.519 z" fill-opacity="1" style="box-sizing: inherit; stroke: rgb(119, 119, 119); stroke-width: 1px; stroke-opacity: 0; stroke-dasharray: none;"/></g><path fill="rgb(247,251,255)" stroke-width="1" d="M 294.981,330.519 A 81.429,81.429 0 0,1 265.176,300.714 L 283.981,289.857 A 59.714,59.714 0 0,0 305.838,311.714 z" fill-opacity="1" style="box-sizing: inherit; stroke: rgb(119, 119, 119); stroke-width: 1px; stroke-opacity: 0; stroke-dasharray: none;"/></g><path fill="rgb(192,192,192)" stroke-width="1" d="M 305.838,311.714 A 59.714,59.714 0 0,1 283.981,289.857 L 302.786,279.000 A 38.000,38.000 0 0,0 316.695,292.909 z" fill-opacity="1" style="box-sizing: inherit; stroke: rgb(119, 119, 119); stroke-width: 1px; stroke-opacity: 0; stroke-dasharray: none;"/></g><g class="wj-slice slice-level1" style="box-sizing: inherit;"><g class="wj-slice slice-level2" style="box-sizing: inherit;"><g class="wj-slice slice-level3" style="box-sizing: inherit;"><g class="wj-slice slice-level4" style="box-sizing: inherit;"><g class="wj-slice slice-level5" style="box-sizing: inherit;"><g class="wj-slice slice-level6" style="box-sizing: inherit;"><g class="wj-slice slice-level7" style="box-sizing: inherit;"><path fill="rgb(192,192,192)" stroke-width="1" d="M 171.150,355.000 A 190.000,190.000 0 0,1 145.695,260.000 L 167.410,260.000 A 168.286,168.286 0 0,0 189.956,344.143 z" fill-opacity="1" style="box-sizing: inherit; stroke: rgb(119, 119, 119); stroke-width: 1px; stroke-opacity: 0; stroke-dasharray: none;"/></g><path fill="rgb(33,113,181)" stroke-width="1" d="M 189.956,344.143 A 168.286,168.286 0 0,1 167.410,260.000 L 189.124,260.000 A 146.571,146.571 0 0,0 208.761,333.286 z" fill-opacity="1" style="box-sizing: inherit; stroke: rgb(119, 119, 119); stroke-width: 1px; stroke-opacity: 0; stroke-dasharray: none;"/></g><path fill="rgb(8,48,107)" stroke-width="1" d="M 208.761,333.286 A 146.571,146.571 0 0,1 189.124,260.000 L 210.838,260.000 A 124.857,124.857 0 0,0 227.566,322.429 z" fill-opacity="1" style="box-sizing: inherit; stroke: rgb(119, 119, 119); stroke-width: 1px; stroke-opacity: 0; stroke-dasharray: none;"/></g><path fill="rgb(107,174,214)" stroke-width="1" d="M 227.566,322.429 A 124.857,124.857 0 0,1 210.838,260.000 L 232.552,260.000 A 103.143,103.143 0 0,0 246.371,311.571 z" fill-opacity="1" style="box-sizing: inherit; stroke: rgb(119, 119, 119); stroke-width: 1px; stroke-opacity: 0; stroke-dasharray: none;"/></g><path fill="rgb(247,251,255)" stroke-width="1" d="M 246.371,311.571 A 103.143,103.143 0 0,1 232.552,260.000 L 254.267,260.000 A 81.429,81.429 0 0,0 265.176,300.714 z" fill-opacity="1" style="box-sizing: inherit; stroke: rgb(119, 119, 119); stroke-width: 1px; stroke-opacity: 0; stroke-dasharray: none;"/></g><path fill="rgb(247,251,255)" stroke-width="1" d="M 265.176,300.714 A 81.429,81.429 0 0,1 254.267,260.000 L 275.981,260.000 A 59.714,59.714 0 0,0 283.981,289.857 z" fill-opacity="1" style="box-sizing: inherit; stroke: rgb(119, 119, 119); stroke-width: 1px; stroke-opacity: 0; stroke-dasharray: none;"/></g><path fill="rgb(247,251,255)" stroke-width="1" d="M 283.981,289.857 A 59.714,59.714 0 0,1 275.981,260.000 L 297.695,260.000 A 38.000,38.000 0 0,0 302.786,279.000 z" fill-opacity="1" style="box-sizing: inherit; stroke: rgb(119, 119, 119); stroke-width: 1px; stroke-opacity: 0; stroke-dasharray: none;"/></g><g class="wj-slice slice-level1" style="box-sizing: inherit;"><g class="wj-slice slice-level2" style="box-sizing: inherit;"><g class="wj-slice slice-level3" style="box-sizing: inherit;"><g class="wj-slice slice-level4" style="box-sizing: inherit;"><g class="wj-slice slice-level5" style="box-sizing: inherit;"><g class="wj-slice slice-level6" style="box-sizing: inherit;"><g class="wj-slice slice-level7" style="box-sizing: inherit;"><path fill="rgb(192,192,192)" stroke-width="1" d="M 145.695,260.000 A 190.000,190.000 0 0,1 171.150,165.000 L 189.956,175.857 A 168.286,168.286 0 0,0 167.410,260.000 z" fill-opacity="1" style="box-sizing: inherit; stroke: rgb(119, 119, 119); stroke-width: 1px; stroke-opacity: 0; stroke-dasharray: none;"/></g><path fill="rgb(8,48,107)" stroke-width="1" d="M 167.410,260.000 A 168.286,168.286 0 0,1 189.956,175.857 L 208.761,186.714 A 146.571,146.571 0 0,0 189.124,260.000 z" fill-opacity="1" style="box-sizing: inherit; stroke: rgb(119, 119, 119); stroke-width: 1px; stroke-opacity: 0; stroke-dasharray: none;"/></g><path fill="rgb(8,48,107)" stroke-width="1" d="M 189.124,260.000 A 146.571,146.571 0 0,1 208.761,186.714 L 227.566,197.571 A 124.857,124.857 0 0,0 210.838,260.000 z" fill-opacity="1" style="box-sizing: inherit; stroke: rgb(119, 119, 119); stroke-width: 1px; stroke-opacity: 0; stroke-dasharray: none;"/></g><path fill="rgb(107,174,214)" stroke-width="1" d="M 210.838,260.000 A 124.857,124.857 0 0,1 227.566,197.571 L 246.371,208.429 A 103.143,103.143 0 0,0 232.552,260.000 z" fill-opacity="1" style="box-sizing: inherit; stroke: rgb(119, 119, 119); stroke-width: 1px; stroke-opacity: 0; stroke-dasharray: none;"/></g><path fill="rgb(247,251,255)" stroke-width="1" d="M 232.552,260.000 A 103.143,103.143 0 0,1 246.371,208.429 L 265.176,219.286 A 81.429,81.429 0 0,0 254.267,260.000 z" fill-opacity="1" style="box-sizing: inherit; stroke: rgb(119, 119, 119); stroke-width: 1px; stroke-opacity: 0; stroke-dasharray: none;"/></g><path fill="rgb(247,251,255)" stroke-width="1" d="M 254.267,260.000 A 81.429,81.429 0 0,1 265.176,219.286 L 283.981,230.143 A 59.714,59.714 0 0,0 275.981,260.000 z" fill-opacity="1" style="box-sizing: inherit; stroke: rgb(119, 119, 119); stroke-width: 1px; stroke-opacity: 0; stroke-dasharray: none;"/></g><path fill="rgb(247,251,255)" stroke-width="1" d="M 275.981,260.000 A 59.714,59.714 0 0,1 283.981,230.143 L 302.786,241.000 A 38.000,38.000 0 0,0 297.695,260.000 z" fill-opacity="1" style="box-sizing: inherit; stroke: rgb(119, 119, 119); stroke-width: 1px; stroke-opacity: 0; stroke-dasharray: none;"/></g><g class="wj-slice slice-level1" style="box-sizing: inherit;"><g class="wj-slice slice-level2" style="box-sizing: inherit;"><g class="wj-slice slice-level3" style="box-sizing: inherit;"><g class="wj-slice slice-level4" style="box-sizing: inherit;"><g class="wj-slice slice-level5" style="box-sizing: inherit;"><g class="wj-slice slice-level6" style="box-sizing: inherit;"><g class="wj-slice slice-level7" style="box-sizing: inherit;"><path fill="rgb(192,192,192)" stroke-width="1" d="M 171.150,165.000 A 190.000,190.000 0 0,1 240.695,95.455 L 251.552,114.260 A 168.286,168.286 0 0,0 189.956,175.857 z" fill-opacity="1" style="box-sizing: inherit; stroke: rgb(119, 119, 119); stroke-width: 1px; stroke-opacity: 0; stroke-dasharray: none;"/></g><path fill="rgb(33,113,181)" stroke-width="1" d="M 189.956,175.857 A 168.286,168.286 0 0,1 251.552,114.260 L 262.410,133.065 A 146.571,146.571 0 0,0 208.761,186.714 z" fill-opacity="1" style="box-sizing: inherit; stroke: rgb(119, 119, 119); stroke-width: 1px; stroke-opacity: 0; stroke-dasharray: none;"/></g><path fill="rgb(8,48,107)" stroke-width="1" d="M 208.761,186.714 A 146.571,146.571 0 0,1 262.410,133.065 L 273.267,151.871 A 124.857,124.857 0 0,0 227.566,197.571 z" fill-opacity="1" style="box-sizing: inherit; stroke: rgb(119, 119, 119); stroke-width: 1px; stroke-opacity: 0; stroke-dasharray: none;"/></g><path fill="rgb(107,174,214)" stroke-width="1" d="M 227.566,197.571 A 124.857,124.857 0 0,1 273.267,151.871 L 284.124,170.676 A 103.143,103.143 0 0,0 246.371,208.429 z" fill-opacity="1" style="box-sizing: inherit; stroke: rgb(119, 119, 119); stroke-width: 1px; stroke-opacity: 0; stroke-dasharray: none;"/></g><path fill="rgb(247,251,255)" stroke-width="1" d="M 246.371,208.429 A 103.143,103.143 0 0,1 284.124,170.676 L 294.981,189.481 A 81.429,81.429 0 0,0 265.176,219.286 z" fill-opacity="1" style="box-sizing: inherit; stroke: rgb(119, 119, 119); stroke-width: 1px; stroke-opacity: 0; stroke-dasharray: none;"/></g><path fill="rgb(247,251,255)" stroke-width="1" d="M 265.176,219.286 A 81.429,81.429 0 0,1 294.981,189.481 L 305.838,208.286 A 59.714,59.714 0 0,0 283.981,230.143 z" fill-opacity="1" style="box-sizing: inherit; stroke: rgb(119, 119, 119); stroke-width: 1px; stroke-opacity: 0; stroke-dasharray: none;"/></g><path fill="rgb(247,251,255)" stroke-width="1" d="M 283.981,230.143 A 59.714,59.714 0 0,1 305.838,208.286 L 316.695,227.091 A 38.000,38.000 0 0,0 302.786,241.000 z" fill-opacity="1" style="box-sizing: inherit; stroke: rgb(119, 119, 119); stroke-width: 1px; stroke-opacity: 0; stroke-dasharray: none;"/></g><g class="wj-slice slice-level1" style="box-sizing: inherit;"><g class="wj-slice slice-level2" style="box-sizing: inherit;"><g class="wj-slice slice-level3" style="box-sizing: inherit;"><g class="wj-slice slice-level4" style="box-sizing: inherit;"><g class="wj-slice slice-level5" style="box-sizing: inherit;"><g class="wj-slice slice-level6" style="box-sizing: inherit;"><g class="wj-slice slice-level7" style="box-sizing: inherit;"><path fill="rgb(192,192,192)" stroke-width="1" d="M 240.695,95.455 A 190.000,190.000 0 0,1 335.695,70.000 L 335.695,91.714 A 168.286,168.286 0 0,0 251.552,114.260 z" fill-opacity="1" style="box-sizing: inherit; stroke: rgb(119, 119, 119); stroke-width: 1px; stroke-opacity: 0; stroke-dasharray: none;"/></g><path fill="rgb(8,48,107)" stroke-width="1" d="M 251.552,114.260 A 168.286,168.286 0 0,1 335.695,91.714 L 335.695,113.429 A 146.571,146.571 0 0,0 262.410,133.065 z" fill-opacity="1" style="box-sizing: inherit; stroke: rgb(119, 119, 119); stroke-width: 1px; stroke-opacity: 0; stroke-dasharray: none;"/></g><path fill="rgb(8,48,107)" stroke-width="1" d="M 262.410,133.065 A 146.571,146.571 0 0,1 335.695,113.429 L 335.695,135.143 A 124.857,124.857 0 0,0 273.267,151.871 z" fill-opacity="1" style="box-sizing: inherit; stroke: rgb(119, 119, 119); stroke-width: 1px; stroke-opacity: 0; stroke-dasharray: none;"/></g><path fill="rgb(107,174,214)" stroke-width="1" d="M 273.267,151.871 A 124.857,124.857 0 0,1 335.695,135.143 L 335.695,156.857 A 103.143,103.143 0 0,0 284.124,170.676 z" fill-opacity="1" style="box-sizing: inherit; stroke: rgb(119, 119, 119); stroke-width: 1px; stroke-opacity: 0; stroke-dasharray: none;"/></g><path fill="rgb(198,219,239)" stroke-width="1" d="M 284.124,170.676 A 103.143,103.143 0 0,1 335.695,156.857 L 335.695,178.571 A 81.429,81.429 0 0,0 294.981,189.481 z" fill-opacity="1" style="box-sizing: inherit; stroke: rgb(119, 119, 119); stroke-width: 1px; stroke-opacity: 0; stroke-dasharray: none;"/></g><path fill="rgb(247,251,255)" stroke-width="1" d="M 294.981,189.481 A 81.429,81.429 0 0,1 335.695,178.571 L 335.695,200.286 A 59.714,59.714 0 0,0 305.838,208.286 z" fill-opacity="1" style="box-sizing: inherit; stroke: rgb(119, 119, 119); stroke-width: 1px; stroke-opacity: 0; stroke-dasharray: none;"/></g><path fill="rgb(247,251,255)" stroke-width="1" d="M 305.838,208.286 A 59.714,59.714 0 0,1 335.695,200.286 L 335.695,222.000 A 38.000,38.000 0 0,0 316.695,227.091 z" fill-opacity="1" style="box-sizing: inherit; stroke: rgb(119, 119, 119); stroke-width: 1px; stroke-opacity: 0; stroke-dasharray: none;"/></g></g><g class="wj-data-labels" style="box-sizing: inherit;"><text x="337.7" y="80.5" class="wj-data-label esri-ring" fill="rgb(68,68,68)" fill-opacity="1" display="block" style="box-sizing: inherit; cursor: default; font-size: 9pt; font-family: &apos;Segoe UI&apos;; font-style: normal; font-weight: normal; display: block; fill: rgb(68, 68, 68); fill-opacity: 1;">2018</text><text x="387.5" y="62.8" class="wj-data-label esri-wedge" fill="rgb(68,68,68)" fill-opacity="1" display="block" style="box-sizing: inherit; cursor: default; font-size: 9pt; font-family: &apos;Segoe UI&apos;; font-style: normal; font-weight: normal; display: block; fill: rgb(68, 68, 68); fill-opacity: 1;">Jan</text><text x="337.7" y="102.2" class="wj-data-label esri-ring" fill="rgb(68,68,68)" fill-opacity="1" display="block" style="box-sizing: inherit; cursor: default; font-size: 9pt; font-family: &apos;Segoe UI&apos;; font-style: normal; font-weight: normal; display: block; fill: rgb(68, 68, 68); fill-opacity: 1;">2017</text><text x="337.7" y="124.0" class="wj-data-label esri-ring" fill="rgb(68,68,68)" fill-opacity="1" display="block" style="box-sizing: inherit; cursor: default; font-size: 9pt; font-family: &apos;Segoe UI&apos;; font-style: normal; font-weight: normal; display: block; fill: rgb(68, 68, 68); fill-opacity: 1;">2016</text><text x="337.7" y="145.7" class="wj-data-label esri-ring" fill="rgb(68,68,68)" fill-opacity="1" display="block" style="box-sizing: inherit; cursor: default; font-size: 9pt; font-family: &apos;Segoe UI&apos;; font-style: normal; font-weight: normal; display: block; fill: rgb(68, 68, 68); fill-opacity: 1;">2015</text><text x="337.7" y="167.3" class="wj-data-label esri-ring" fill="rgb(68,68,68)" fill-opacity="1" display="block" style="box-sizing: inherit; cursor: default; font-size: 9pt; font-family: &apos;Segoe UI&apos;; font-style: normal; font-weight: normal; display: block; fill: rgb(68, 68, 68); fill-opacity: 1;">2014</text><text x="337.7" y="189.0" class="wj-data-label esri-ring" fill="rgb(68,68,68)" fill-opacity="1" display="block" style="box-sizing: inherit; cursor: default; font-size: 9pt; font-family: &apos;Segoe UI&apos;; font-style: normal; font-weight: normal; display: block; fill: rgb(68, 68, 68); fill-opacity: 1;">2013</text><text x="337.7" y="210.8" class="wj-data-label esri-ring" fill="rgb(68,68,68)" fill-opacity="1" display="block" style="box-sizing: inherit; cursor: default; font-size: 9pt; font-family: &apos;Segoe UI&apos;; font-style: normal; font-weight: normal; display: block; fill: rgb(68, 68, 68); fill-opacity: 1;">2012</text><text x="477.1" y="114.6" class="wj-data-label esri-wedge" fill="rgb(68,68,68)" fill-opacity="1" display="block" style="box-sizing: inherit; cursor: default; font-size: 9pt; font-family: &apos;Segoe UI&apos;; font-style: normal; font-weight: normal; display: block; fill: rgb(68, 68, 68); fill-opacity: 1;">Feb</text><text x="528.9" y="204.3" class="wj-data-label esri-wedge" fill="rgb(68,68,68)" fill-opacity="1" display="block" style="box-sizing: inherit; cursor: default; font-size: 9pt; font-family: &apos;Segoe UI&apos;; font-style: normal; font-weight: normal; display: block; fill: rgb(68, 68, 68); fill-opacity: 1;">Mar</text><text x="528.9" y="326.7" class="wj-data-label esri-wedge" fill="rgb(68,68,68)" fill-opacity="1" display="block" style="box-sizing: inherit; cursor: default; font-size: 9pt; font-family: &apos;Segoe UI&apos;; font-style: normal; font-weight: normal; display: block; fill: rgb(68, 68, 68); fill-opacity: 1;">Apr</text><text x="477.1" y="416.4" class="wj-data-label esri-wedge" fill="rgb(68,68,68)" fill-opacity="1" display="block" style="box-sizing: inherit; cursor: default; font-size: 9pt; font-family: &apos;Segoe UI&apos;; font-style: normal; font-weight: normal; display: block; fill: rgb(68, 68, 68); fill-opacity: 1;">May</text><text x="387.5" y="468.2" class="wj-data-label esri-wedge" fill="rgb(68,68,68)" fill-opacity="1" display="block" style="box-sizing: inherit; cursor: default; font-size: 9pt; font-family: &apos;Segoe UI&apos;; font-style: normal; font-weight: normal; display: block; fill: rgb(68, 68, 68); fill-opacity: 1;">Jun</text><text x="265.7" y="468.2" class="wj-data-label esri-wedge" fill="rgb(68,68,68)" fill-opacity="1" display="block" style="box-sizing: inherit; cursor: default; font-size: 9pt; font-family: &apos;Segoe UI&apos;; font-style: normal; font-weight: normal; display: block; fill: rgb(68, 68, 68); fill-opacity: 1;">Jul</text><text x="168.6" y="416.4" class="wj-data-label esri-wedge" fill="rgb(68,68,68)" fill-opacity="1" display="block" style="box-sizing: inherit; cursor: default; font-size: 9pt; font-family: &apos;Segoe UI&apos;; font-style: normal; font-weight: normal; display: block; fill: rgb(68, 68, 68); fill-opacity: 1;">Aug</text><text x="118.8" y="326.7" class="wj-data-label esri-wedge" fill="rgb(68,68,68)" fill-opacity="1" display="block" style="box-sizing: inherit; cursor: default; font-size: 9pt; font-family: &apos;Segoe UI&apos;; font-style: normal; font-weight: normal; display: block; fill: rgb(68, 68, 68); fill-opacity: 1;">Sep</text><text x="119.2" y="204.3" class="wj-data-label esri-wedge" fill="rgb(68,68,68)" fill-opacity="1" display="block" style="box-sizing: inherit; cursor: default; font-size: 9pt; font-family: &apos;Segoe UI&apos;; font-style: normal; font-weight: normal; display: block; fill: rgb(68, 68, 68); fill-opacity: 1;">Oct</text><text x="167.6" y="114.6" class="wj-data-label esri-wedge" fill="rgb(68,68,68)" fill-opacity="1" display="block" style="box-sizing: inherit; cursor: default; font-size: 9pt; font-family: &apos;Segoe UI&apos;; font-style: normal; font-weight: normal; display: block; fill: rgb(68, 68, 68); fill-opacity: 1;">Nov</text><text x="259.1" y="62.8" class="wj-data-label esri-wedge" fill="rgb(68,68,68)" fill-opacity="1" display="block" style="box-sizing: inherit; cursor: default; font-size: 9pt; font-family: &apos;Segoe UI&apos;; font-style: normal; font-weight: normal; display: block; fill: rgb(68, 68, 68); fill-opacity: 1;">Dec</text></g></svg>